%TF.GenerationSoftware,KiCad,Pcbnew,8.0.9-8.0.9-0~ubuntu22.04.1*%
%TF.CreationDate,2025-07-15T10:59:45-04:00*%
%TF.ProjectId,schematics,73636865-6d61-4746-9963-732e6b696361,rev?*%
%TF.SameCoordinates,Original*%
%TF.FileFunction,Copper,L1,Top*%
%TF.FilePolarity,Positive*%
%FSLAX46Y46*%
G04 Gerber Fmt 4.6, Leading zero omitted, Abs format (unit mm)*
G04 Created by KiCad (PCBNEW 8.0.9-8.0.9-0~ubuntu22.04.1) date 2025-07-15 10:59:45*
%MOMM*%
%LPD*%
G01*
G04 APERTURE LIST*
G04 Aperture macros list*
%AMRoundRect*
0 Rectangle with rounded corners*
0 $1 Rounding radius*
0 $2 $3 $4 $5 $6 $7 $8 $9 X,Y pos of 4 corners*
0 Add a 4 corners polygon primitive as box body*
4,1,4,$2,$3,$4,$5,$6,$7,$8,$9,$2,$3,0*
0 Add four circle primitives for the rounded corners*
1,1,$1+$1,$2,$3*
1,1,$1+$1,$4,$5*
1,1,$1+$1,$6,$7*
1,1,$1+$1,$8,$9*
0 Add four rect primitives between the rounded corners*
20,1,$1+$1,$2,$3,$4,$5,0*
20,1,$1+$1,$4,$5,$6,$7,0*
20,1,$1+$1,$6,$7,$8,$9,0*
20,1,$1+$1,$8,$9,$2,$3,0*%
G04 Aperture macros list end*
%TA.AperFunction,SMDPad,CuDef*%
%ADD10RoundRect,0.225000X-0.225000X-0.250000X0.225000X-0.250000X0.225000X0.250000X-0.225000X0.250000X0*%
%TD*%
%TA.AperFunction,SMDPad,CuDef*%
%ADD11RoundRect,0.200000X0.275000X-0.200000X0.275000X0.200000X-0.275000X0.200000X-0.275000X-0.200000X0*%
%TD*%
%TA.AperFunction,ComponentPad*%
%ADD12R,2.200000X2.200000*%
%TD*%
%TA.AperFunction,ComponentPad*%
%ADD13C,2.200000*%
%TD*%
%TA.AperFunction,SMDPad,CuDef*%
%ADD14RoundRect,0.225000X0.225000X0.250000X-0.225000X0.250000X-0.225000X-0.250000X0.225000X-0.250000X0*%
%TD*%
%TA.AperFunction,SMDPad,CuDef*%
%ADD15RoundRect,0.250000X-0.250000X-0.475000X0.250000X-0.475000X0.250000X0.475000X-0.250000X0.475000X0*%
%TD*%
%TA.AperFunction,SMDPad,CuDef*%
%ADD16RoundRect,0.200000X-0.200000X-0.275000X0.200000X-0.275000X0.200000X0.275000X-0.200000X0.275000X0*%
%TD*%
%TA.AperFunction,SMDPad,CuDef*%
%ADD17R,0.900000X1.000000*%
%TD*%
%TA.AperFunction,SMDPad,CuDef*%
%ADD18RoundRect,0.225000X-0.250000X0.225000X-0.250000X-0.225000X0.250000X-0.225000X0.250000X0.225000X0*%
%TD*%
%TA.AperFunction,SMDPad,CuDef*%
%ADD19RoundRect,0.225000X0.250000X-0.225000X0.250000X0.225000X-0.250000X0.225000X-0.250000X-0.225000X0*%
%TD*%
%TA.AperFunction,SMDPad,CuDef*%
%ADD20RoundRect,0.150000X0.425000X-0.150000X0.425000X0.150000X-0.425000X0.150000X-0.425000X-0.150000X0*%
%TD*%
%TA.AperFunction,SMDPad,CuDef*%
%ADD21RoundRect,0.075000X0.500000X-0.075000X0.500000X0.075000X-0.500000X0.075000X-0.500000X-0.075000X0*%
%TD*%
%TA.AperFunction,SMDPad,CuDef*%
%ADD22RoundRect,0.250000X0.750000X-0.840000X0.750000X0.840000X-0.750000X0.840000X-0.750000X-0.840000X0*%
%TD*%
%TA.AperFunction,SMDPad,CuDef*%
%ADD23RoundRect,0.093750X0.106250X-0.093750X0.106250X0.093750X-0.106250X0.093750X-0.106250X-0.093750X0*%
%TD*%
%TA.AperFunction,HeatsinkPad*%
%ADD24R,1.600000X1.000000*%
%TD*%
%TA.AperFunction,ComponentPad*%
%ADD25C,3.800000*%
%TD*%
%TA.AperFunction,SMDPad,CuDef*%
%ADD26RoundRect,0.200000X-0.275000X0.200000X-0.275000X-0.200000X0.275000X-0.200000X0.275000X0.200000X0*%
%TD*%
%TA.AperFunction,SMDPad,CuDef*%
%ADD27RoundRect,0.150000X0.150000X-0.512500X0.150000X0.512500X-0.150000X0.512500X-0.150000X-0.512500X0*%
%TD*%
%TA.AperFunction,SMDPad,CuDef*%
%ADD28RoundRect,0.150000X0.512500X0.150000X-0.512500X0.150000X-0.512500X-0.150000X0.512500X-0.150000X0*%
%TD*%
%TA.AperFunction,SMDPad,CuDef*%
%ADD29RoundRect,0.250000X0.250000X0.475000X-0.250000X0.475000X-0.250000X-0.475000X0.250000X-0.475000X0*%
%TD*%
%TA.AperFunction,ComponentPad*%
%ADD30R,1.800000X1.800000*%
%TD*%
%TA.AperFunction,ComponentPad*%
%ADD31C,1.800000*%
%TD*%
%TA.AperFunction,ComponentPad*%
%ADD32RoundRect,0.250000X-0.350000X-0.625000X0.350000X-0.625000X0.350000X0.625000X-0.350000X0.625000X0*%
%TD*%
%TA.AperFunction,ComponentPad*%
%ADD33O,1.200000X1.750000*%
%TD*%
%TA.AperFunction,SMDPad,CuDef*%
%ADD34R,0.675000X0.250000*%
%TD*%
%TA.AperFunction,SMDPad,CuDef*%
%ADD35R,0.250000X0.675000*%
%TD*%
%TA.AperFunction,ComponentPad*%
%ADD36O,3.500000X2.200000*%
%TD*%
%TA.AperFunction,ComponentPad*%
%ADD37R,2.500000X1.500000*%
%TD*%
%TA.AperFunction,ComponentPad*%
%ADD38O,2.500000X1.500000*%
%TD*%
%TA.AperFunction,SMDPad,CuDef*%
%ADD39RoundRect,0.200000X0.200000X0.275000X-0.200000X0.275000X-0.200000X-0.275000X0.200000X-0.275000X0*%
%TD*%
%TA.AperFunction,SMDPad,CuDef*%
%ADD40R,1.500000X0.900000*%
%TD*%
%TA.AperFunction,HeatsinkPad*%
%ADD41C,0.600000*%
%TD*%
%TA.AperFunction,HeatsinkPad*%
%ADD42R,2.900000X2.900000*%
%TD*%
%TA.AperFunction,SMDPad,CuDef*%
%ADD43RoundRect,0.150000X-0.512500X-0.150000X0.512500X-0.150000X0.512500X0.150000X-0.512500X0.150000X0*%
%TD*%
%TA.AperFunction,ViaPad*%
%ADD44C,0.600000*%
%TD*%
%TA.AperFunction,Conductor*%
%ADD45C,0.200000*%
%TD*%
%TA.AperFunction,Conductor*%
%ADD46C,0.300000*%
%TD*%
G04 APERTURE END LIST*
D10*
%TO.P,C3,1*%
%TO.N,+3V3*%
X166400000Y-85500000D03*
%TO.P,C3,2*%
%TO.N,GND*%
X167950000Y-85500000D03*
%TD*%
D11*
%TO.P,R1,1*%
%TO.N,Net-(R1-Pad1)*%
X145300000Y-93625000D03*
%TO.P,R1,2*%
%TO.N,+3V3*%
X145300000Y-91975000D03*
%TD*%
%TO.P,R13,1*%
%TO.N,Net-(J4-Pin_1)*%
X159400000Y-91525000D03*
%TO.P,R13,2*%
%TO.N,/MS2*%
X159400000Y-89875000D03*
%TD*%
D12*
%TO.P,J3,1,Pin_1*%
%TO.N,Net-(J3-Pin_1)*%
X154320000Y-96000000D03*
D13*
%TO.P,J3,2,Pin_2*%
%TO.N,+3V3*%
X156860000Y-96000000D03*
%TD*%
D14*
%TO.P,C11,1*%
%TO.N,Net-(U2-BP)*%
X165975000Y-88000000D03*
%TO.P,C11,2*%
%TO.N,GND*%
X164425000Y-88000000D03*
%TD*%
D11*
%TO.P,R12,1*%
%TO.N,Net-(J3-Pin_1)*%
X152600000Y-91550000D03*
%TO.P,R12,2*%
%TO.N,GND*%
X152600000Y-89900000D03*
%TD*%
D15*
%TO.P,C10,1*%
%TO.N,+3V3*%
X173275000Y-97500000D03*
%TO.P,C10,2*%
%TO.N,GND*%
X175175000Y-97500000D03*
%TD*%
D16*
%TO.P,R10,1*%
%TO.N,+3V3*%
X165175000Y-79900000D03*
%TO.P,R10,2*%
%TO.N,/SCL*%
X166825000Y-79900000D03*
%TD*%
D17*
%TO.P,SW5,1,1*%
%TO.N,GND*%
X146900000Y-96600000D03*
X151000000Y-96600000D03*
%TO.P,SW5,2,2*%
%TO.N,Net-(R3-Pad2)*%
X146900000Y-98200000D03*
X151000000Y-98200000D03*
%TD*%
D18*
%TO.P,C4,1*%
%TO.N,/MS3*%
X166000000Y-89925000D03*
%TO.P,C4,2*%
%TO.N,GND*%
X166000000Y-91475000D03*
%TD*%
D19*
%TO.P,C12,1*%
%TO.N,Net-(U3-BP)*%
X139200000Y-81575000D03*
%TO.P,C12,2*%
%TO.N,GND*%
X139200000Y-80025000D03*
%TD*%
D16*
%TO.P,R8,1*%
%TO.N,Net-(U4-~{CHRG})*%
X171350000Y-80000000D03*
%TO.P,R8,2*%
%TO.N,Net-(D1-K)*%
X173000000Y-80000000D03*
%TD*%
D20*
%TO.P,J1,A1,GND*%
%TO.N,GND*%
X175120000Y-90300000D03*
%TO.P,J1,A4,VBUS*%
%TO.N,+5V*%
X175120000Y-89500000D03*
D21*
%TO.P,J1,A5,CC1*%
%TO.N,unconnected-(J1-CC1-PadA5)*%
X175120000Y-88350000D03*
%TO.P,J1,A6,D+*%
%TO.N,/D+*%
X175120000Y-87350000D03*
%TO.P,J1,A7,D-*%
%TO.N,/D-*%
X175120000Y-86850000D03*
%TO.P,J1,A8*%
%TO.N,N/C*%
X175120000Y-85850000D03*
D20*
%TO.P,J1,A9,VBUS*%
%TO.N,+5V*%
X175120000Y-84700000D03*
%TO.P,J1,A12,GND*%
%TO.N,GND*%
X175120000Y-83900000D03*
%TO.P,J1,B1,GND*%
X175120000Y-83900000D03*
%TO.P,J1,B4,VBUS*%
%TO.N,+5V*%
X175120000Y-84700000D03*
D21*
%TO.P,J1,B5,CC2*%
%TO.N,unconnected-(J1-CC2-PadB5)*%
X175120000Y-85350000D03*
%TO.P,J1,B6,D+*%
%TO.N,/D+*%
X175120000Y-86350000D03*
%TO.P,J1,B7,D-*%
%TO.N,/D-*%
X175120000Y-87850000D03*
%TO.P,J1,B8*%
%TO.N,N/C*%
X175120000Y-88850000D03*
D20*
%TO.P,J1,B9,VBUS*%
%TO.N,+5V*%
X175120000Y-89500000D03*
%TO.P,J1,B12,GND*%
%TO.N,GND*%
X175120000Y-90300000D03*
D22*
%TO.P,J1,S1,SHIELD*%
X175695000Y-92210000D03*
X179625000Y-92210000D03*
X175695000Y-81990000D03*
X179625000Y-81990000D03*
%TD*%
D11*
%TO.P,R6,1*%
%TO.N,Net-(J3-Pin_1)*%
X154300000Y-91550000D03*
%TO.P,R6,2*%
%TO.N,/MS1*%
X154300000Y-89900000D03*
%TD*%
D23*
%TO.P,U5,1,GND*%
%TO.N,GND*%
X171950000Y-91300000D03*
%TO.P,U5,2,GND*%
X172600000Y-91300000D03*
%TO.P,U5,3,GND*%
X173250000Y-91300000D03*
%TO.P,U5,4,IN*%
%TO.N,+5V*%
X173250000Y-89525000D03*
%TO.P,U5,5,IN*%
X172600000Y-89525000D03*
%TO.P,U5,6,IN*%
X171950000Y-89525000D03*
D24*
%TO.P,U5,7,GND*%
%TO.N,GND*%
X172600000Y-90412500D03*
%TD*%
D25*
%TO.P,REF\u002A\u002A,1*%
%TO.N,N/C*%
X133400000Y-97599998D03*
%TD*%
D26*
%TO.P,R11,1*%
%TO.N,+3V3*%
X163100000Y-79775000D03*
%TO.P,R11,2*%
%TO.N,/SDA*%
X163100000Y-81425000D03*
%TD*%
D25*
%TO.P,REF\u002A\u002A,1*%
%TO.N,N/C*%
X133399999Y-76599997D03*
%TD*%
D27*
%TO.P,U3,1,IN*%
%TO.N,Net-(SW1-A)*%
X137450000Y-86137500D03*
%TO.P,U3,2,GND*%
%TO.N,GND*%
X138400000Y-86137500D03*
%TO.P,U3,3,EN*%
%TO.N,Net-(SW1-A)*%
X139350000Y-86137500D03*
%TO.P,U3,4,BP*%
%TO.N,Net-(U3-BP)*%
X139350000Y-83862500D03*
%TO.P,U3,5,OUT*%
%TO.N,+3V3*%
X137450000Y-83862500D03*
%TD*%
D14*
%TO.P,C13,1*%
%TO.N,+5V*%
X170300000Y-87900000D03*
%TO.P,C13,2*%
%TO.N,GND*%
X168750000Y-87900000D03*
%TD*%
D12*
%TO.P,J5,1,Pin_1*%
%TO.N,Net-(J5-Pin_1)*%
X167660000Y-96000000D03*
D13*
%TO.P,J5,2,Pin_2*%
%TO.N,+3V3*%
X170200000Y-96000000D03*
%TD*%
D28*
%TO.P,U2,1,IN*%
%TO.N,+5V*%
X170337500Y-91400000D03*
%TO.P,U2,2,GND*%
%TO.N,GND*%
X170337500Y-90450000D03*
%TO.P,U2,3,EN*%
%TO.N,+5V*%
X170337500Y-89500000D03*
%TO.P,U2,4,BP*%
%TO.N,Net-(U2-BP)*%
X168062500Y-89500000D03*
%TO.P,U2,5,OUT*%
%TO.N,+3V3*%
X168062500Y-91400000D03*
%TD*%
D29*
%TO.P,C9,1*%
%TO.N,+3V3*%
X135300000Y-80700000D03*
%TO.P,C9,2*%
%TO.N,GND*%
X133400000Y-80700000D03*
%TD*%
D10*
%TO.P,C5,1*%
%TO.N,Net-(U1-EN)*%
X143725000Y-90500000D03*
%TO.P,C5,2*%
%TO.N,GND*%
X145275000Y-90500000D03*
%TD*%
D12*
%TO.P,J4,1,Pin_1*%
%TO.N,Net-(J4-Pin_1)*%
X161000000Y-96000000D03*
D13*
%TO.P,J4,2,Pin_2*%
%TO.N,+3V3*%
X163540000Y-96000000D03*
%TD*%
D26*
%TO.P,R4,1*%
%TO.N,+3V3*%
X145300000Y-96550000D03*
%TO.P,R4,2*%
%TO.N,Net-(R3-Pad2)*%
X145300000Y-98200000D03*
%TD*%
D18*
%TO.P,C8,1*%
%TO.N,/MS2*%
X161100000Y-89925000D03*
%TO.P,C8,2*%
%TO.N,GND*%
X161100000Y-91475000D03*
%TD*%
D17*
%TO.P,SW4,1,1*%
%TO.N,GND*%
X146900000Y-92600000D03*
X151000000Y-92600000D03*
%TO.P,SW4,2,2*%
%TO.N,Net-(R1-Pad1)*%
X146900000Y-94200000D03*
X151000000Y-94200000D03*
%TD*%
D26*
%TO.P,R_PROG1,1*%
%TO.N,Net-(U4-PROG)*%
X141500000Y-90525000D03*
%TO.P,R_PROG1,2*%
%TO.N,GND*%
X141500000Y-92175000D03*
%TD*%
D11*
%TO.P,R7,1*%
%TO.N,Net-(J5-Pin_1)*%
X162800000Y-91550000D03*
%TO.P,R7,2*%
%TO.N,GND*%
X162800000Y-89900000D03*
%TD*%
D26*
%TO.P,R2,1*%
%TO.N,Net-(U1-EN)*%
X143750000Y-91975000D03*
%TO.P,R2,2*%
%TO.N,Net-(R1-Pad1)*%
X143750000Y-93625000D03*
%TD*%
D30*
%TO.P,D1,1,K*%
%TO.N,Net-(D1-K)*%
X173770000Y-77835000D03*
D31*
%TO.P,D1,2,A*%
%TO.N,+5V*%
X171230000Y-77835000D03*
%TD*%
D25*
%TO.P,REF\u002A\u002A,1*%
%TO.N,N/C*%
X179400000Y-97599998D03*
%TD*%
D19*
%TO.P,C14,1*%
%TO.N,Net-(SW1-A)*%
X137400000Y-81600000D03*
%TO.P,C14,2*%
%TO.N,GND*%
X137400000Y-80050000D03*
%TD*%
D25*
%TO.P,REF\u002A\u002A,1*%
%TO.N,N/C*%
X179400000Y-76599998D03*
%TD*%
D32*
%TO.P,J2,1,Pin_1*%
%TO.N,GND*%
X138500000Y-95800000D03*
D33*
%TO.P,J2,2,Pin_2*%
%TO.N,Net-(J2-Pin_2)*%
X140500000Y-95800000D03*
%TD*%
D19*
%TO.P,C2,1*%
%TO.N,+3V3*%
X172000000Y-83100000D03*
%TO.P,C2,2*%
%TO.N,GND*%
X172000000Y-81550000D03*
%TD*%
D34*
%TO.P,U6,1,SDO*%
%TO.N,/SDA*%
X165575000Y-81600000D03*
%TO.P,U6,2,ASDx*%
%TO.N,unconnected-(U6-ASDx-Pad2)*%
X165575000Y-82100000D03*
%TO.P,U6,3,ASCx*%
%TO.N,unconnected-(U6-ASCx-Pad3)*%
X165575000Y-82600000D03*
%TO.P,U6,4,INT1*%
%TO.N,unconnected-(U6-INT1-Pad4)*%
X165575000Y-83100000D03*
D35*
%TO.P,U6,5,VDDI0*%
%TO.N,+3V3*%
X166337500Y-83362500D03*
%TO.P,U6,6,GNDI0*%
%TO.N,GND*%
X166837500Y-83362500D03*
%TO.P,U6,7,GND*%
X167337500Y-83362500D03*
D34*
%TO.P,U6,8,VDD*%
%TO.N,+3V3*%
X168100000Y-83100000D03*
%TO.P,U6,9,INT2*%
%TO.N,unconnected-(U6-INT2-Pad9)*%
X168100000Y-82600000D03*
%TO.P,U6,10,OCSB*%
%TO.N,unconnected-(U6-OCSB-Pad10)*%
X168100000Y-82100000D03*
%TO.P,U6,11,OSDO*%
%TO.N,unconnected-(U6-OSDO-Pad11)*%
X168100000Y-81600000D03*
D35*
%TO.P,U6,12,CSB*%
%TO.N,+3V3*%
X167337500Y-81337500D03*
%TO.P,U6,13,SCx*%
%TO.N,/SCL*%
X166837500Y-81337500D03*
%TO.P,U6,14,SDx*%
%TO.N,+3V3*%
X166337500Y-81337500D03*
%TD*%
D10*
%TO.P,C6,1*%
%TO.N,Net-(U1-IO9)*%
X143725000Y-95075000D03*
%TO.P,C6,2*%
%TO.N,GND*%
X145275000Y-95075000D03*
%TD*%
D26*
%TO.P,R3,1*%
%TO.N,Net-(U1-IO9)*%
X143750000Y-96550000D03*
%TO.P,R3,2*%
%TO.N,Net-(R3-Pad2)*%
X143750000Y-98200000D03*
%TD*%
D15*
%TO.P,C15,1*%
%TO.N,+5V*%
X173275000Y-95100000D03*
%TO.P,C15,2*%
%TO.N,GND*%
X175175000Y-95100000D03*
%TD*%
D36*
%TO.P,SW1,*%
%TO.N,*%
X133700000Y-83700000D03*
X133700000Y-91900000D03*
D37*
%TO.P,SW1,1,A*%
%TO.N,Net-(SW1-A)*%
X133700000Y-85800000D03*
D38*
%TO.P,SW1,2,B*%
%TO.N,Net-(J2-Pin_2)*%
X133700000Y-87800000D03*
%TO.P,SW1,3,C*%
%TO.N,unconnected-(SW1-C-Pad3)*%
X133700000Y-89800000D03*
%TD*%
D39*
%TO.P,R9,1*%
%TO.N,Net-(D2-A)*%
X163025000Y-76400000D03*
%TO.P,R9,2*%
%TO.N,Net-(U1-IO0)*%
X161375000Y-76400000D03*
%TD*%
D30*
%TO.P,D2,1,K*%
%TO.N,GND*%
X168170000Y-77835000D03*
D31*
%TO.P,D2,2,A*%
%TO.N,Net-(D2-A)*%
X165630000Y-77835000D03*
%TD*%
D18*
%TO.P,C7,1*%
%TO.N,/MS1*%
X156000000Y-89925000D03*
%TO.P,C7,2*%
%TO.N,GND*%
X156000000Y-91475000D03*
%TD*%
D11*
%TO.P,R5,1*%
%TO.N,Net-(J4-Pin_1)*%
X157700000Y-91525000D03*
%TO.P,R5,2*%
%TO.N,GND*%
X157700000Y-89875000D03*
%TD*%
D40*
%TO.P,U1,1,3V3*%
%TO.N,+3V3*%
X141300000Y-75700000D03*
%TO.P,U1,2,EN*%
%TO.N,Net-(U1-EN)*%
X141300000Y-77200000D03*
%TO.P,U1,3,IO4*%
%TO.N,unconnected-(U1-IO4-Pad3)*%
X141300000Y-78700000D03*
%TO.P,U1,4,IO5*%
%TO.N,unconnected-(U1-IO5-Pad4)*%
X141300000Y-80200000D03*
%TO.P,U1,5,IO6*%
%TO.N,unconnected-(U1-IO6-Pad5)*%
X141300000Y-81700000D03*
%TO.P,U1,6,IO7*%
%TO.N,unconnected-(U1-IO7-Pad6)*%
X141300000Y-83200000D03*
%TO.P,U1,7,IO8*%
%TO.N,unconnected-(U1-IO8-Pad7)*%
X141300000Y-84700000D03*
%TO.P,U1,8,IO9*%
%TO.N,Net-(U1-IO9)*%
X141300000Y-86200000D03*
%TO.P,U1,9,GND*%
%TO.N,GND*%
X141300000Y-87700000D03*
%TO.P,U1,10,IO10*%
%TO.N,/MS1*%
X158800000Y-87700000D03*
%TO.P,U1,11,IO20/RXD*%
%TO.N,/MS2*%
X158800000Y-86200000D03*
%TO.P,U1,12,IO21/TXD*%
%TO.N,/MS3*%
X158800000Y-84700000D03*
%TO.P,U1,13,IO18*%
%TO.N,/D-*%
X158800000Y-83200000D03*
%TO.P,U1,14,IO19*%
%TO.N,/D+*%
X158800000Y-81700000D03*
%TO.P,U1,15,IO3*%
%TO.N,/SDA*%
X158800000Y-80200000D03*
%TO.P,U1,16,IO2*%
%TO.N,/SCL*%
X158800000Y-78700000D03*
%TO.P,U1,17,IO1*%
%TO.N,unconnected-(U1-IO1-Pad17)*%
X158800000Y-77200000D03*
%TO.P,U1,18,IO0*%
%TO.N,Net-(U1-IO0)*%
X158800000Y-75700000D03*
D41*
%TO.P,U1,19,GND*%
%TO.N,GND*%
X149910000Y-81350000D03*
X149910000Y-82450000D03*
X150460000Y-80800000D03*
X150460000Y-81900000D03*
X150460000Y-83000000D03*
X151010000Y-81350000D03*
D42*
X151010000Y-81900000D03*
D41*
X151010000Y-82450000D03*
X151560000Y-80800000D03*
X151560000Y-81900000D03*
X151560000Y-83000000D03*
X152110000Y-81350000D03*
X152110000Y-82450000D03*
%TD*%
D43*
%TO.P,U4,1,~{CHRG}*%
%TO.N,Net-(U4-~{CHRG})*%
X137425000Y-90500000D03*
%TO.P,U4,2,GND*%
%TO.N,GND*%
X137425000Y-91450000D03*
%TO.P,U4,3,BAT*%
%TO.N,Net-(J2-Pin_2)*%
X137425000Y-92400000D03*
%TO.P,U4,4,V_{CC}*%
%TO.N,+5V*%
X139700000Y-92400000D03*
%TO.P,U4,5,PROG*%
%TO.N,Net-(U4-PROG)*%
X139700000Y-90500000D03*
%TD*%
D11*
%TO.P,R14,1*%
%TO.N,Net-(J5-Pin_1)*%
X164400000Y-91550000D03*
%TO.P,R14,2*%
%TO.N,/MS3*%
X164400000Y-89900000D03*
%TD*%
D44*
%TO.N,GND*%
X144950000Y-87900000D03*
X138500000Y-78100000D03*
X167500000Y-87850000D03*
X136500000Y-76000000D03*
X144950000Y-80700000D03*
%TO.N,+3V3*%
X167025000Y-84875000D03*
X146022452Y-95840761D03*
X160550000Y-79400000D03*
X167900000Y-80012648D03*
X169900000Y-83100000D03*
X146200000Y-91400000D03*
%TO.N,+5V*%
X171300000Y-87900000D03*
X141000000Y-93100000D03*
%TO.N,Net-(U4-~{CHRG})*%
X137400000Y-89400000D03*
X170500000Y-80200000D03*
%TD*%
D45*
%TO.N,GND*%
X167337500Y-83362500D02*
X167337500Y-84337500D01*
X166837500Y-83362500D02*
X166837500Y-84262500D01*
%TO.N,+3V3*%
X146200000Y-91400000D02*
X145600000Y-91400000D01*
X164940000Y-97400000D02*
X169060000Y-97400000D01*
X165450000Y-79900000D02*
X165175000Y-79900000D01*
X146350000Y-79450000D02*
X146200000Y-79600000D01*
X135300000Y-82100000D02*
X135300000Y-80700000D01*
X135300000Y-80700000D02*
X135300000Y-79000000D01*
X146022452Y-95840761D02*
X146009239Y-95840761D01*
X142300000Y-75700000D02*
X141300000Y-75700000D01*
X137450000Y-83862500D02*
X137062500Y-83862500D01*
X173275000Y-97500000D02*
X171775000Y-96000000D01*
X146150000Y-79550000D02*
X142300000Y-75700000D01*
X170200000Y-96260000D02*
X170200000Y-96000000D01*
X167350000Y-81325000D02*
X167337500Y-81337500D01*
X137062500Y-83862500D02*
X135300000Y-82100000D01*
X163540000Y-96000000D02*
X164940000Y-97400000D01*
X158260000Y-97400000D02*
X158300000Y-97400000D01*
X166337500Y-83362500D02*
X166337500Y-85437500D01*
X166337500Y-81337500D02*
X166337500Y-80787500D01*
X146200000Y-79600000D02*
X146200000Y-91400000D01*
X156860000Y-96000000D02*
X158260000Y-97400000D01*
X162775000Y-79450000D02*
X146350000Y-79450000D01*
X145300000Y-91700000D02*
X145300000Y-91975000D01*
X167337500Y-80575148D02*
X167900000Y-80012648D01*
X171775000Y-96000000D02*
X170200000Y-96000000D01*
X135300000Y-79000000D02*
X138600000Y-75700000D01*
X169060000Y-97400000D02*
X170200000Y-96260000D01*
X166400000Y-85500000D02*
X167025000Y-84875000D01*
X167337500Y-81337500D02*
X167337500Y-80575148D01*
X172000000Y-83000000D02*
X172000000Y-83100000D01*
X166337500Y-85437500D02*
X166400000Y-85500000D01*
X146150000Y-97400000D02*
X158300000Y-97400000D01*
X165175000Y-79900000D02*
X163225000Y-79900000D01*
X166337500Y-80787500D02*
X165450000Y-79900000D01*
X163100000Y-79775000D02*
X162775000Y-79450000D01*
X170200000Y-93537500D02*
X170200000Y-96000000D01*
X168062500Y-91400000D02*
X170200000Y-93537500D01*
X168100000Y-83100000D02*
X172000000Y-83100000D01*
X145300000Y-96550000D02*
X146150000Y-97400000D01*
X146009239Y-95840761D02*
X145300000Y-96550000D01*
X138600000Y-75700000D02*
X141300000Y-75700000D01*
X158300000Y-97400000D02*
X164940000Y-97400000D01*
X145600000Y-91400000D02*
X145300000Y-91700000D01*
%TO.N,/MS3*%
X166000000Y-89925000D02*
X164425000Y-89925000D01*
X159200000Y-84700000D02*
X158800000Y-84700000D01*
X164425000Y-89925000D02*
X164400000Y-89900000D01*
X164400000Y-89900000D02*
X159200000Y-84700000D01*
%TO.N,Net-(U1-EN)*%
X143750000Y-90525000D02*
X143725000Y-90500000D01*
X143725000Y-90500000D02*
X143725000Y-78525000D01*
X143750000Y-91975000D02*
X143750000Y-90525000D01*
X143725000Y-78525000D02*
X142400000Y-77200000D01*
X142400000Y-77200000D02*
X141300000Y-77200000D01*
%TO.N,Net-(U1-IO9)*%
X142975000Y-94325000D02*
X142975000Y-86775000D01*
X143725000Y-95075000D02*
X142975000Y-94325000D01*
X143750000Y-95100000D02*
X143725000Y-95075000D01*
X143750000Y-96550000D02*
X143750000Y-95100000D01*
X142400000Y-86200000D02*
X141300000Y-86200000D01*
X142975000Y-86775000D02*
X142400000Y-86200000D01*
%TO.N,/MS1*%
X156000000Y-89300000D02*
X157600000Y-87700000D01*
X154325000Y-89925000D02*
X154300000Y-89900000D01*
X156000000Y-89925000D02*
X154325000Y-89925000D01*
X157600000Y-87700000D02*
X158800000Y-87700000D01*
X156000000Y-89925000D02*
X156000000Y-89300000D01*
%TO.N,/MS2*%
X159900000Y-86200000D02*
X158800000Y-86200000D01*
X161100000Y-87400000D02*
X159900000Y-86200000D01*
X161100000Y-89925000D02*
X159450000Y-89925000D01*
X159450000Y-89925000D02*
X159400000Y-89875000D01*
X161100000Y-89925000D02*
X161100000Y-87400000D01*
D46*
%TO.N,+5V*%
X171000000Y-91400000D02*
X173250000Y-93650000D01*
D45*
X176600000Y-85605001D02*
X176995000Y-85210001D01*
X176995000Y-85210001D02*
X176995000Y-78660000D01*
D46*
X170337500Y-89500000D02*
X169537500Y-89500000D01*
D45*
X176600000Y-88477410D02*
X175577410Y-89500000D01*
D46*
X140300000Y-92400000D02*
X141000000Y-93100000D01*
D45*
X171975000Y-89500000D02*
X171950000Y-89525000D01*
X175577410Y-89500000D02*
X175120000Y-89500000D01*
D46*
X170300000Y-87900000D02*
X171300000Y-87900000D01*
X170337500Y-87937500D02*
X170300000Y-87900000D01*
D45*
X174970000Y-76635000D02*
X172430000Y-76635000D01*
D46*
X139700000Y-92400000D02*
X140300000Y-92400000D01*
X169100000Y-89937500D02*
X169100000Y-91000000D01*
D45*
X175694999Y-84700000D02*
X176600000Y-85605001D01*
X172430000Y-76635000D02*
X171230000Y-77835000D01*
D46*
X170337500Y-89500000D02*
X175120000Y-89500000D01*
X170337500Y-91400000D02*
X171000000Y-91400000D01*
X169500000Y-91400000D02*
X170337500Y-91400000D01*
X169537500Y-89500000D02*
X169100000Y-89937500D01*
X170337500Y-89500000D02*
X170337500Y-87937500D01*
D45*
X176995000Y-78660000D02*
X174970000Y-76635000D01*
D46*
X169100000Y-91000000D02*
X169500000Y-91400000D01*
D45*
X171925000Y-89500000D02*
X171950000Y-89525000D01*
X175120000Y-84700000D02*
X175694999Y-84700000D01*
X176600000Y-85605001D02*
X176600000Y-88477410D01*
D46*
X173250000Y-93650000D02*
X173250000Y-95150000D01*
D45*
%TO.N,Net-(D1-K)*%
X173000000Y-78605000D02*
X173770000Y-77835000D01*
X173000000Y-80000000D02*
X173000000Y-78605000D01*
%TO.N,Net-(D2-A)*%
X163025000Y-76400000D02*
X164195000Y-76400000D01*
X164195000Y-76400000D02*
X165630000Y-77835000D01*
%TO.N,/D+*%
X160500000Y-81700000D02*
X158800000Y-81700000D01*
X175727410Y-86350000D02*
X175120000Y-86350000D01*
X175120000Y-86350000D02*
X174257499Y-86350000D01*
X175995000Y-87105000D02*
X175995000Y-86617590D01*
X174232499Y-86375000D02*
X165175000Y-86375000D01*
X175995000Y-86617590D02*
X175727410Y-86350000D01*
X165175000Y-86375000D02*
X160500000Y-81700000D01*
X174257499Y-86350000D02*
X174232499Y-86375000D01*
X175750000Y-87350000D02*
X175995000Y-87105000D01*
X175120000Y-87350000D02*
X175750000Y-87350000D01*
%TO.N,/D-*%
X165059314Y-86825000D02*
X174232499Y-86825000D01*
X163400233Y-85165919D02*
X165059314Y-86825000D01*
X175120000Y-87850000D02*
X174512590Y-87850000D01*
X161434314Y-83200000D02*
X161739819Y-83505505D01*
X174232499Y-86825000D02*
X174257499Y-86850000D01*
X158800000Y-83200000D02*
X160797273Y-83200000D01*
X174512590Y-86850000D02*
X175120000Y-86850000D01*
X161739819Y-84044257D02*
X161894706Y-84199144D01*
X160797273Y-83200000D02*
X161016773Y-83200000D01*
X174245000Y-87117590D02*
X174512590Y-86850000D01*
X174257499Y-86850000D02*
X175120000Y-86850000D01*
X174512590Y-87850000D02*
X174245000Y-87582410D01*
X162588347Y-84354033D02*
X163400233Y-85165919D01*
X161016773Y-83200000D02*
X161434314Y-83200000D01*
X162433459Y-84199144D02*
X162588347Y-84354033D01*
X174245000Y-87582410D02*
X174245000Y-87117590D01*
X161739819Y-83774881D02*
G75*
G03*
X161739788Y-84044288I134681J-134719D01*
G01*
X162164083Y-84199144D02*
G75*
G02*
X162433459Y-84199144I134688J-134687D01*
G01*
X161894706Y-84199144D02*
G75*
G03*
X162164083Y-84199144I134688J134691D01*
G01*
X161739819Y-83505505D02*
G75*
G02*
X161739826Y-83774888I-134719J-134695D01*
G01*
D46*
%TO.N,Net-(J2-Pin_2)*%
X140500000Y-94650000D02*
X140500000Y-95800000D01*
X137425000Y-93450000D02*
X138000000Y-94025000D01*
X138000000Y-94025000D02*
X139875000Y-94025000D01*
X139875000Y-94025000D02*
X140500000Y-94650000D01*
X136100000Y-92100000D02*
X136100000Y-88800000D01*
X136100000Y-88800000D02*
X135100000Y-87800000D01*
X135100000Y-87800000D02*
X133700000Y-87800000D01*
X137425000Y-92400000D02*
X137425000Y-93450000D01*
X137425000Y-92400000D02*
X136400000Y-92400000D01*
X136400000Y-92400000D02*
X136100000Y-92100000D01*
D45*
%TO.N,Net-(J3-Pin_1)*%
X154320000Y-91570000D02*
X154300000Y-91550000D01*
X154320000Y-96000000D02*
X154320000Y-91570000D01*
X152600000Y-91550000D02*
X154300000Y-91550000D01*
%TO.N,Net-(J4-Pin_1)*%
X159400000Y-91525000D02*
X159400000Y-94400000D01*
X159400000Y-94400000D02*
X161000000Y-96000000D01*
X159400000Y-91525000D02*
X157700000Y-91525000D01*
%TO.N,Net-(J5-Pin_1)*%
X164400000Y-91550000D02*
X164400000Y-92740000D01*
X162800000Y-91550000D02*
X164400000Y-91550000D01*
X164400000Y-92740000D02*
X167660000Y-96000000D01*
%TO.N,Net-(R1-Pad1)*%
X145825000Y-93625000D02*
X145300000Y-93625000D01*
X146875000Y-94225000D02*
X146900000Y-94200000D01*
X146900000Y-94200000D02*
X146400000Y-94200000D01*
X146400000Y-94200000D02*
X145825000Y-93625000D01*
X146550000Y-94200000D02*
X150650000Y-94200000D01*
X143750000Y-93625000D02*
X145300000Y-93625000D01*
%TO.N,Net-(R3-Pad2)*%
X145300000Y-98200000D02*
X146900000Y-98200000D01*
X145300000Y-98200000D02*
X143750000Y-98200000D01*
X146550000Y-98200000D02*
X150650000Y-98200000D01*
%TO.N,Net-(U4-~{CHRG})*%
X170700000Y-80000000D02*
X171350000Y-80000000D01*
X137400000Y-89400000D02*
X137400000Y-90475000D01*
X137400000Y-90475000D02*
X137425000Y-90500000D01*
X170500000Y-80200000D02*
X170700000Y-80000000D01*
%TO.N,Net-(U1-IO0)*%
X158800000Y-75700000D02*
X159900000Y-75700000D01*
X159900000Y-75700000D02*
X160600000Y-76400000D01*
X160600000Y-76400000D02*
X161375000Y-76400000D01*
%TO.N,/SCL*%
X164425000Y-79125000D02*
X164000000Y-78700000D01*
X164000000Y-78700000D02*
X158800000Y-78700000D01*
X166837500Y-79912500D02*
X166825000Y-79900000D01*
X166825000Y-79900000D02*
X166050000Y-79125000D01*
X166837500Y-81337500D02*
X166837500Y-79912500D01*
X166050000Y-79125000D02*
X164425000Y-79125000D01*
%TO.N,/SDA*%
X158800000Y-80200000D02*
X161100000Y-80200000D01*
X163275000Y-81600000D02*
X163100000Y-81425000D01*
X162325000Y-81425000D02*
X163100000Y-81425000D01*
X165575000Y-81600000D02*
X163275000Y-81600000D01*
X161100000Y-80200000D02*
X162325000Y-81425000D01*
%TO.N,Net-(U4-PROG)*%
X139725000Y-90525000D02*
X139700000Y-90500000D01*
X141500000Y-90525000D02*
X139725000Y-90525000D01*
X139700000Y-90500000D02*
X140200000Y-90500000D01*
%TO.N,Net-(SW1-A)*%
X139350000Y-85350000D02*
X139350000Y-86137500D01*
X137112500Y-85800000D02*
X133700000Y-85800000D01*
X137450000Y-85784448D02*
X137450000Y-86137500D01*
X137400000Y-81600000D02*
X137400000Y-82509448D01*
X138050000Y-83159448D02*
X138050000Y-85184448D01*
X139175000Y-85175000D02*
X139350000Y-85350000D01*
X138050000Y-85184448D02*
X137450000Y-85784448D01*
X137400000Y-82509448D02*
X138050000Y-83159448D01*
X137450000Y-86137500D02*
X137112500Y-85800000D01*
X138059448Y-85175000D02*
X139175000Y-85175000D01*
X138050000Y-85184448D02*
X138059448Y-85175000D01*
%TO.N,Net-(U2-BP)*%
X167600000Y-89500000D02*
X166100000Y-88000000D01*
X166100000Y-88000000D02*
X165975000Y-88000000D01*
X168062500Y-89500000D02*
X167600000Y-89500000D01*
%TO.N,Net-(U3-BP)*%
X139350000Y-83862500D02*
X139350000Y-81725000D01*
X139350000Y-81725000D02*
X139200000Y-81575000D01*
%TD*%
%TA.AperFunction,Conductor*%
%TO.N,GND*%
G36*
X140242539Y-76070185D02*
G01*
X140288294Y-76122989D01*
X140298233Y-76168679D01*
X140298903Y-76168614D01*
X140299468Y-76174354D01*
X140299500Y-76174500D01*
X140299500Y-76174678D01*
X140314032Y-76247735D01*
X140314033Y-76247739D01*
X140318895Y-76255015D01*
X140369399Y-76330601D01*
X140393790Y-76346898D01*
X140438594Y-76400511D01*
X140447301Y-76469836D01*
X140417146Y-76532863D01*
X140393791Y-76553100D01*
X140369399Y-76569399D01*
X140314033Y-76652260D01*
X140314032Y-76652264D01*
X140299500Y-76725321D01*
X140299500Y-77674678D01*
X140314032Y-77747735D01*
X140314033Y-77747739D01*
X140318895Y-77755015D01*
X140369399Y-77830601D01*
X140393790Y-77846898D01*
X140438594Y-77900511D01*
X140447301Y-77969836D01*
X140417146Y-78032863D01*
X140393791Y-78053100D01*
X140369399Y-78069399D01*
X140314033Y-78152260D01*
X140314032Y-78152264D01*
X140299500Y-78225321D01*
X140299500Y-79174678D01*
X140314032Y-79247735D01*
X140314033Y-79247739D01*
X140314034Y-79247740D01*
X140369399Y-79330601D01*
X140393790Y-79346898D01*
X140438594Y-79400511D01*
X140447301Y-79469836D01*
X140417146Y-79532863D01*
X140393791Y-79553100D01*
X140369399Y-79569399D01*
X140314033Y-79652260D01*
X140314032Y-79652264D01*
X140299500Y-79725321D01*
X140299500Y-80674678D01*
X140314032Y-80747735D01*
X140314033Y-80747739D01*
X140314034Y-80747740D01*
X140369399Y-80830601D01*
X140393790Y-80846898D01*
X140438594Y-80900511D01*
X140447301Y-80969836D01*
X140417146Y-81032863D01*
X140393791Y-81053100D01*
X140369399Y-81069399D01*
X140314033Y-81152260D01*
X140314032Y-81152264D01*
X140299500Y-81225321D01*
X140299500Y-82174678D01*
X140314032Y-82247735D01*
X140314033Y-82247739D01*
X140331450Y-82273805D01*
X140369399Y-82330601D01*
X140393790Y-82346898D01*
X140438594Y-82400511D01*
X140447301Y-82469836D01*
X140417146Y-82532863D01*
X140393791Y-82553100D01*
X140390063Y-82555592D01*
X140369399Y-82569399D01*
X140314033Y-82652260D01*
X140314032Y-82652264D01*
X140299500Y-82725321D01*
X140299500Y-83674678D01*
X140314032Y-83747735D01*
X140314033Y-83747739D01*
X140314034Y-83747740D01*
X140369399Y-83830601D01*
X140393790Y-83846898D01*
X140438594Y-83900511D01*
X140447301Y-83969836D01*
X140417146Y-84032863D01*
X140393791Y-84053100D01*
X140369399Y-84069399D01*
X140314033Y-84152260D01*
X140314032Y-84152264D01*
X140299500Y-84225321D01*
X140299500Y-85174678D01*
X140314032Y-85247735D01*
X140314033Y-85247739D01*
X140319649Y-85256144D01*
X140369399Y-85330601D01*
X140393790Y-85346898D01*
X140438594Y-85400511D01*
X140447301Y-85469836D01*
X140417146Y-85532863D01*
X140393791Y-85553100D01*
X140380745Y-85561818D01*
X140369399Y-85569399D01*
X140314033Y-85652260D01*
X140314032Y-85652264D01*
X140299500Y-85725321D01*
X140299500Y-86674678D01*
X140314032Y-86747735D01*
X140314033Y-86747739D01*
X140318894Y-86755014D01*
X140369399Y-86830601D01*
X140449113Y-86883863D01*
X140452260Y-86885966D01*
X140452264Y-86885967D01*
X140525321Y-86900499D01*
X140525324Y-86900500D01*
X140525326Y-86900500D01*
X142074676Y-86900500D01*
X142074677Y-86900499D01*
X142147740Y-86885966D01*
X142230601Y-86830601D01*
X142268550Y-86773804D01*
X142322161Y-86729000D01*
X142391486Y-86720293D01*
X142454514Y-86750447D01*
X142459333Y-86755015D01*
X142588181Y-86883863D01*
X142621666Y-86945186D01*
X142624500Y-86971544D01*
X142624500Y-94371145D01*
X142636307Y-94415211D01*
X142636308Y-94415211D01*
X142636308Y-94415212D01*
X142648004Y-94458863D01*
X142648387Y-94460290D01*
X142694527Y-94540208D01*
X142694531Y-94540213D01*
X142988181Y-94833863D01*
X143021666Y-94895186D01*
X143024500Y-94921544D01*
X143024500Y-95370481D01*
X143024501Y-95370490D01*
X143030587Y-95427114D01*
X143071329Y-95536344D01*
X143078372Y-95555226D01*
X143129009Y-95622870D01*
X143160314Y-95664688D01*
X143267345Y-95744810D01*
X143309217Y-95800743D01*
X143314201Y-95870435D01*
X143280716Y-95931758D01*
X143266669Y-95943847D01*
X143152850Y-96027850D01*
X143072207Y-96137117D01*
X143072206Y-96137119D01*
X143027353Y-96265298D01*
X143027353Y-96265300D01*
X143024500Y-96295730D01*
X143024500Y-96804269D01*
X143027353Y-96834699D01*
X143027353Y-96834701D01*
X143068298Y-96951712D01*
X143072207Y-96962882D01*
X143152850Y-97072150D01*
X143262118Y-97152793D01*
X143304845Y-97167744D01*
X143390299Y-97197646D01*
X143420730Y-97200500D01*
X143420734Y-97200500D01*
X144079270Y-97200500D01*
X144109699Y-97197646D01*
X144109701Y-97197646D01*
X144177184Y-97174032D01*
X144237882Y-97152793D01*
X144347150Y-97072150D01*
X144425230Y-96966355D01*
X144480877Y-96924104D01*
X144550533Y-96918645D01*
X144612083Y-96951712D01*
X144624770Y-96966355D01*
X144702848Y-97072148D01*
X144702849Y-97072148D01*
X144702850Y-97072150D01*
X144812118Y-97152793D01*
X144854845Y-97167744D01*
X144940299Y-97197646D01*
X144970730Y-97200500D01*
X144970734Y-97200500D01*
X145403456Y-97200500D01*
X145470495Y-97220185D01*
X145491137Y-97236819D01*
X145592137Y-97337819D01*
X145625622Y-97399142D01*
X145620638Y-97468834D01*
X145578766Y-97524767D01*
X145513302Y-97549184D01*
X145504456Y-97549500D01*
X144970730Y-97549500D01*
X144940300Y-97552353D01*
X144940298Y-97552353D01*
X144812119Y-97597206D01*
X144812117Y-97597207D01*
X144702850Y-97677850D01*
X144624770Y-97783645D01*
X144569122Y-97825895D01*
X144499466Y-97831354D01*
X144437917Y-97798286D01*
X144425230Y-97783645D01*
X144400767Y-97750499D01*
X144347150Y-97677850D01*
X144237882Y-97597207D01*
X144237880Y-97597206D01*
X144109700Y-97552353D01*
X144079270Y-97549500D01*
X144079266Y-97549500D01*
X143420734Y-97549500D01*
X143420730Y-97549500D01*
X143390300Y-97552353D01*
X143390298Y-97552353D01*
X143262119Y-97597206D01*
X143262117Y-97597207D01*
X143152850Y-97677850D01*
X143072207Y-97787117D01*
X143072206Y-97787119D01*
X143027353Y-97915298D01*
X143027353Y-97915300D01*
X143024500Y-97945730D01*
X143024500Y-98454269D01*
X143027353Y-98484699D01*
X143027353Y-98484701D01*
X143068061Y-98601034D01*
X143072207Y-98612882D01*
X143152850Y-98722150D01*
X143262118Y-98802793D01*
X143296324Y-98814762D01*
X143380579Y-98844245D01*
X143437355Y-98884967D01*
X143463102Y-98949920D01*
X143449645Y-99018481D01*
X143401258Y-99068884D01*
X143339624Y-99085286D01*
X135223167Y-99085286D01*
X135156128Y-99065601D01*
X135110373Y-99012797D01*
X135100429Y-98943639D01*
X135121862Y-98889778D01*
X135186829Y-98797740D01*
X135241722Y-98719974D01*
X135377072Y-98458762D01*
X135475592Y-98181552D01*
X135475592Y-98181547D01*
X135475595Y-98181541D01*
X135522524Y-97955703D01*
X135535448Y-97893509D01*
X135555525Y-97599998D01*
X135535448Y-97306487D01*
X135503510Y-97152792D01*
X135475595Y-97018454D01*
X135475590Y-97018438D01*
X135430944Y-96892815D01*
X135377072Y-96741234D01*
X135241722Y-96480022D01*
X135241721Y-96480020D01*
X135241717Y-96480014D01*
X135072067Y-96239674D01*
X135005130Y-96168002D01*
X134871260Y-96024663D01*
X134871258Y-96024662D01*
X134871256Y-96024659D01*
X134663432Y-95855582D01*
X134643049Y-95838999D01*
X134643047Y-95838998D01*
X134643045Y-95838996D01*
X134391680Y-95686137D01*
X134391675Y-95686135D01*
X134121845Y-95568932D01*
X133838560Y-95489559D01*
X133838556Y-95489558D01*
X133838555Y-95489558D01*
X133692826Y-95469528D01*
X133547099Y-95449498D01*
X133547098Y-95449498D01*
X133252902Y-95449498D01*
X133252901Y-95449498D01*
X132961445Y-95489558D01*
X132961439Y-95489559D01*
X132678154Y-95568932D01*
X132408324Y-95686135D01*
X132408319Y-95686137D01*
X132156954Y-95838996D01*
X132116969Y-95871527D01*
X132052543Y-95898565D01*
X131983726Y-95886480D01*
X131932368Y-95839108D01*
X131914714Y-95775339D01*
X131914714Y-92973972D01*
X131934399Y-92906933D01*
X131987203Y-92861178D01*
X132056361Y-92851234D01*
X132119917Y-92880259D01*
X132126395Y-92886291D01*
X132170213Y-92930109D01*
X132342179Y-93055048D01*
X132342181Y-93055049D01*
X132342184Y-93055051D01*
X132531588Y-93151557D01*
X132733757Y-93217246D01*
X132943713Y-93250500D01*
X132943714Y-93250500D01*
X134456286Y-93250500D01*
X134456287Y-93250500D01*
X134666243Y-93217246D01*
X134868412Y-93151557D01*
X135057816Y-93055051D01*
X135123320Y-93007460D01*
X135229786Y-92930109D01*
X135229788Y-92930106D01*
X135229792Y-92930104D01*
X135380104Y-92779792D01*
X135380106Y-92779788D01*
X135380109Y-92779786D01*
X135505048Y-92607820D01*
X135505047Y-92607820D01*
X135505051Y-92607816D01*
X135601557Y-92418412D01*
X135601558Y-92418410D01*
X135603418Y-92413919D01*
X135605314Y-92414704D01*
X135639887Y-92364143D01*
X135704246Y-92336944D01*
X135773092Y-92348859D01*
X135806062Y-92372455D01*
X136154087Y-92720480D01*
X136245412Y-92773207D01*
X136347273Y-92800500D01*
X136452727Y-92800500D01*
X136545246Y-92800500D01*
X136612285Y-92820185D01*
X136632928Y-92836820D01*
X136674153Y-92878046D01*
X136674155Y-92878047D01*
X136674158Y-92878050D01*
X136776329Y-92930109D01*
X136787198Y-92935647D01*
X136880974Y-92950499D01*
X136880975Y-92950499D01*
X136880981Y-92950500D01*
X136900497Y-92950499D01*
X136967535Y-92970181D01*
X137013292Y-93022983D01*
X137024500Y-93074499D01*
X137024500Y-93502726D01*
X137051793Y-93604589D01*
X137063289Y-93624500D01*
X137104520Y-93695913D01*
X137754087Y-94345480D01*
X137845412Y-94398207D01*
X137947273Y-94425500D01*
X139657745Y-94425500D01*
X139724784Y-94445185D01*
X139745426Y-94461819D01*
X139965531Y-94681924D01*
X139999016Y-94743247D01*
X139994032Y-94812939D01*
X139961112Y-94859033D01*
X139962145Y-94860066D01*
X139839376Y-94982834D01*
X139839373Y-94982837D01*
X139746295Y-95122139D01*
X139682184Y-95276917D01*
X139682182Y-95276925D01*
X139649500Y-95441228D01*
X139649500Y-96158771D01*
X139682182Y-96323074D01*
X139682184Y-96323082D01*
X139746295Y-96477860D01*
X139839373Y-96617162D01*
X139957837Y-96735626D01*
X140050494Y-96797537D01*
X140097137Y-96828703D01*
X140251918Y-96892816D01*
X140409215Y-96924104D01*
X140416228Y-96925499D01*
X140416232Y-96925500D01*
X140416233Y-96925500D01*
X140583768Y-96925500D01*
X140583769Y-96925499D01*
X140748082Y-96892816D01*
X140902863Y-96828703D01*
X141042162Y-96735626D01*
X141160626Y-96617162D01*
X141253703Y-96477863D01*
X141317816Y-96323082D01*
X141350500Y-96158767D01*
X141350500Y-95441233D01*
X141317816Y-95276918D01*
X141253703Y-95122137D01*
X141208543Y-95054551D01*
X141160626Y-94982837D01*
X141042165Y-94864376D01*
X141042161Y-94864373D01*
X140955609Y-94806540D01*
X140910804Y-94752927D01*
X140900500Y-94703438D01*
X140900500Y-94597275D01*
X140900500Y-94597273D01*
X140873207Y-94495413D01*
X140820480Y-94404087D01*
X140745913Y-94329520D01*
X140120913Y-93704520D01*
X140070339Y-93675321D01*
X140029589Y-93651793D01*
X139971874Y-93636329D01*
X139927727Y-93624500D01*
X139927726Y-93624500D01*
X138217255Y-93624500D01*
X138150216Y-93604815D01*
X138129574Y-93588181D01*
X137861819Y-93320426D01*
X137828334Y-93259103D01*
X137825500Y-93232745D01*
X137825500Y-93074499D01*
X137845185Y-93007460D01*
X137897989Y-92961705D01*
X137949500Y-92950499D01*
X137969017Y-92950499D01*
X137969018Y-92950499D01*
X138062804Y-92935646D01*
X138175842Y-92878050D01*
X138265550Y-92788342D01*
X138323146Y-92675304D01*
X138323146Y-92675302D01*
X138323147Y-92675301D01*
X138333835Y-92607816D01*
X138338000Y-92581519D01*
X138337999Y-92218482D01*
X138337998Y-92218475D01*
X138787000Y-92218475D01*
X138787000Y-92581517D01*
X138792959Y-92619139D01*
X138801854Y-92675304D01*
X138859450Y-92788342D01*
X138859452Y-92788344D01*
X138859454Y-92788347D01*
X138949152Y-92878045D01*
X138949154Y-92878046D01*
X138949158Y-92878050D01*
X139051329Y-92930109D01*
X139062198Y-92935647D01*
X139155975Y-92950499D01*
X139155981Y-92950500D01*
X140232744Y-92950499D01*
X140299783Y-92970183D01*
X140320425Y-92986818D01*
X140416675Y-93083068D01*
X140450160Y-93144391D01*
X140451933Y-93154563D01*
X140463670Y-93243707D01*
X140463671Y-93243712D01*
X140519137Y-93377622D01*
X140519138Y-93377624D01*
X140519139Y-93377625D01*
X140607379Y-93492621D01*
X140722375Y-93580861D01*
X140856291Y-93636330D01*
X140983280Y-93653048D01*
X140999999Y-93655250D01*
X141000000Y-93655250D01*
X141000001Y-93655250D01*
X141014977Y-93653278D01*
X141143709Y-93636330D01*
X141277625Y-93580861D01*
X141392621Y-93492621D01*
X141480861Y-93377625D01*
X141536330Y-93243709D01*
X141555250Y-93100000D01*
X141536330Y-92956291D01*
X141499350Y-92867013D01*
X141480862Y-92822377D01*
X141480861Y-92822376D01*
X141480861Y-92822375D01*
X141392621Y-92707379D01*
X141277625Y-92619139D01*
X141277624Y-92619138D01*
X141277622Y-92619137D01*
X141143712Y-92563671D01*
X141143710Y-92563670D01*
X141143709Y-92563670D01*
X141095009Y-92557258D01*
X141054563Y-92551933D01*
X140990666Y-92523666D01*
X140983068Y-92516675D01*
X140619365Y-92152972D01*
X140596561Y-92121586D01*
X140540550Y-92011658D01*
X140540546Y-92011654D01*
X140540545Y-92011652D01*
X140450847Y-91921954D01*
X140450844Y-91921952D01*
X140450842Y-91921950D01*
X140364674Y-91878045D01*
X140337801Y-91864352D01*
X140244024Y-91849500D01*
X139155982Y-91849500D01*
X139075019Y-91862323D01*
X139062196Y-91864354D01*
X138949158Y-91921950D01*
X138949157Y-91921951D01*
X138949152Y-91921954D01*
X138859454Y-92011652D01*
X138859451Y-92011657D01*
X138859450Y-92011658D01*
X138841366Y-92047149D01*
X138801852Y-92124698D01*
X138787000Y-92218475D01*
X138337998Y-92218475D01*
X138323146Y-92124696D01*
X138265550Y-92011658D01*
X138265546Y-92011654D01*
X138265545Y-92011652D01*
X138175847Y-91921954D01*
X138175844Y-91921952D01*
X138175842Y-91921950D01*
X138089674Y-91878045D01*
X138062801Y-91864352D01*
X137969024Y-91849500D01*
X136880982Y-91849500D01*
X136787195Y-91864354D01*
X136680794Y-91918568D01*
X136612125Y-91931464D01*
X136547385Y-91905187D01*
X136507128Y-91848081D01*
X136500500Y-91808083D01*
X136500500Y-91091916D01*
X136520185Y-91024877D01*
X136572989Y-90979122D01*
X136642147Y-90969178D01*
X136680791Y-90981429D01*
X136787196Y-91035646D01*
X136787197Y-91035646D01*
X136787199Y-91035647D01*
X136787198Y-91035647D01*
X136880975Y-91050499D01*
X136880981Y-91050500D01*
X137969018Y-91050499D01*
X138062804Y-91035646D01*
X138175842Y-90978050D01*
X138265550Y-90888342D01*
X138323146Y-90775304D01*
X138323146Y-90775302D01*
X138323147Y-90775301D01*
X138337999Y-90681524D01*
X138338000Y-90681519D01*
X138337999Y-90318482D01*
X138337998Y-90318475D01*
X138787000Y-90318475D01*
X138787000Y-90681517D01*
X138793966Y-90725500D01*
X138801854Y-90775304D01*
X138859450Y-90888342D01*
X138859452Y-90888344D01*
X138859454Y-90888347D01*
X138949152Y-90978045D01*
X138949154Y-90978046D01*
X138949158Y-90978050D01*
X139041061Y-91024877D01*
X139062198Y-91035647D01*
X139155975Y-91050499D01*
X139155981Y-91050500D01*
X140244018Y-91050499D01*
X140337804Y-91035646D01*
X140450842Y-90978050D01*
X140517074Y-90911817D01*
X140578395Y-90878334D01*
X140604754Y-90875500D01*
X140714520Y-90875500D01*
X140781559Y-90895185D01*
X140815031Y-90931628D01*
X140816689Y-90930405D01*
X140822206Y-90937880D01*
X140822207Y-90937882D01*
X140902850Y-91047150D01*
X141012118Y-91127793D01*
X141054845Y-91142744D01*
X141140299Y-91172646D01*
X141170730Y-91175500D01*
X141170734Y-91175500D01*
X141829270Y-91175500D01*
X141859699Y-91172646D01*
X141859701Y-91172646D01*
X141944031Y-91143137D01*
X141987882Y-91127793D01*
X142097150Y-91047150D01*
X142177793Y-90937882D01*
X142201584Y-90869890D01*
X142222646Y-90809701D01*
X142222646Y-90809699D01*
X142225500Y-90779269D01*
X142225500Y-90270730D01*
X142222646Y-90240300D01*
X142222646Y-90240298D01*
X142179899Y-90118137D01*
X142177793Y-90112118D01*
X142097150Y-90002850D01*
X141987882Y-89922207D01*
X141987880Y-89922206D01*
X141859700Y-89877353D01*
X141829270Y-89874500D01*
X141829266Y-89874500D01*
X141170734Y-89874500D01*
X141170730Y-89874500D01*
X141140300Y-89877353D01*
X141140298Y-89877353D01*
X141012119Y-89922206D01*
X141012117Y-89922207D01*
X140936453Y-89978050D01*
X140902850Y-90002850D01*
X140822547Y-90111658D01*
X140816689Y-90119595D01*
X140814714Y-90118137D01*
X140775420Y-90158515D01*
X140714520Y-90174500D01*
X140648557Y-90174500D01*
X140581518Y-90154815D01*
X140548293Y-90118093D01*
X140546286Y-90119552D01*
X140540550Y-90111657D01*
X140450847Y-90021954D01*
X140450844Y-90021952D01*
X140450842Y-90021950D01*
X140364674Y-89978045D01*
X140337801Y-89964352D01*
X140244024Y-89949500D01*
X139155982Y-89949500D01*
X139075019Y-89962323D01*
X139062196Y-89964354D01*
X138949158Y-90021950D01*
X138949157Y-90021951D01*
X138949152Y-90021954D01*
X138859454Y-90111652D01*
X138859451Y-90111657D01*
X138859450Y-90111658D01*
X138856149Y-90118137D01*
X138801852Y-90224698D01*
X138787000Y-90318475D01*
X138337998Y-90318475D01*
X138323146Y-90224696D01*
X138265550Y-90111658D01*
X138265546Y-90111654D01*
X138265545Y-90111652D01*
X138175847Y-90021954D01*
X138175844Y-90021952D01*
X138175842Y-90021950D01*
X138089674Y-89978045D01*
X138062801Y-89964352D01*
X137969024Y-89949500D01*
X137969019Y-89949500D01*
X137923691Y-89949500D01*
X137856652Y-89929815D01*
X137810897Y-89877011D01*
X137800953Y-89807853D01*
X137825315Y-89750014D01*
X137838986Y-89732197D01*
X137880861Y-89677625D01*
X137936330Y-89543709D01*
X137955250Y-89400000D01*
X137936330Y-89256291D01*
X137882692Y-89126795D01*
X137880862Y-89122377D01*
X137880861Y-89122376D01*
X137880861Y-89122375D01*
X137792621Y-89007379D01*
X137677625Y-88919139D01*
X137677624Y-88919138D01*
X137677622Y-88919137D01*
X137543712Y-88863671D01*
X137543710Y-88863670D01*
X137543709Y-88863670D01*
X137460590Y-88852727D01*
X137400001Y-88844750D01*
X137399999Y-88844750D01*
X137256291Y-88863670D01*
X137256287Y-88863671D01*
X137122377Y-88919137D01*
X137007379Y-89007379D01*
X136919137Y-89122377D01*
X136863671Y-89256287D01*
X136863670Y-89256291D01*
X136850958Y-89352850D01*
X136844750Y-89400000D01*
X136858990Y-89508165D01*
X136863670Y-89543708D01*
X136863671Y-89543712D01*
X136919138Y-89677623D01*
X136919139Y-89677625D01*
X136974685Y-89750014D01*
X136999879Y-89815183D01*
X136985841Y-89883628D01*
X136937027Y-89933617D01*
X136885680Y-89947185D01*
X136885833Y-89949119D01*
X136880988Y-89949500D01*
X136787195Y-89964354D01*
X136680794Y-90018568D01*
X136612125Y-90031464D01*
X136547385Y-90005187D01*
X136507128Y-89948081D01*
X136500500Y-89908083D01*
X136500500Y-88862729D01*
X136500501Y-88862716D01*
X136500501Y-88747274D01*
X136497710Y-88736859D01*
X136473207Y-88645413D01*
X136473206Y-88645412D01*
X136473206Y-88645410D01*
X136473204Y-88645407D01*
X136454320Y-88612699D01*
X136454319Y-88612697D01*
X136420484Y-88554093D01*
X136420481Y-88554089D01*
X136420480Y-88554087D01*
X136345913Y-88479520D01*
X136345912Y-88479519D01*
X136341582Y-88475189D01*
X136341571Y-88475179D01*
X135345915Y-87479522D01*
X135345914Y-87479521D01*
X135345913Y-87479520D01*
X135254588Y-87426793D01*
X135171651Y-87404570D01*
X135111992Y-87368206D01*
X135089185Y-87332249D01*
X135086633Y-87326089D01*
X135086632Y-87326086D01*
X135086630Y-87326083D01*
X135086628Y-87326079D01*
X134977139Y-87162218D01*
X134977136Y-87162214D01*
X134837787Y-87022865D01*
X134834725Y-87020352D01*
X134833552Y-87018630D01*
X134833475Y-87018553D01*
X134833489Y-87018538D01*
X134795392Y-86962605D01*
X134793523Y-86892761D01*
X134829711Y-86832993D01*
X134892468Y-86802278D01*
X134913392Y-86800500D01*
X134974676Y-86800500D01*
X134974677Y-86800499D01*
X135047740Y-86785966D01*
X135130601Y-86730601D01*
X135185966Y-86647740D01*
X135200500Y-86574674D01*
X135200500Y-86274500D01*
X135220185Y-86207461D01*
X135272989Y-86161706D01*
X135324500Y-86150500D01*
X136775501Y-86150500D01*
X136842540Y-86170185D01*
X136888295Y-86222989D01*
X136899501Y-86274500D01*
X136899501Y-86681518D01*
X136914354Y-86775304D01*
X136971950Y-86888342D01*
X136971952Y-86888344D01*
X136971954Y-86888347D01*
X137061652Y-86978045D01*
X137061654Y-86978046D01*
X137061658Y-86978050D01*
X137169234Y-87032863D01*
X137174698Y-87035647D01*
X137268475Y-87050499D01*
X137268481Y-87050500D01*
X137631518Y-87050499D01*
X137725304Y-87035646D01*
X137838342Y-86978050D01*
X137928050Y-86888342D01*
X137985646Y-86775304D01*
X137985646Y-86775302D01*
X137985647Y-86775301D01*
X138000499Y-86681524D01*
X138000500Y-86681519D01*
X138000499Y-85780991D01*
X138020183Y-85713953D01*
X138036813Y-85693316D01*
X138168312Y-85561817D01*
X138229634Y-85528334D01*
X138255992Y-85525500D01*
X138675500Y-85525500D01*
X138742539Y-85545185D01*
X138788294Y-85597989D01*
X138799500Y-85649500D01*
X138799500Y-86681517D01*
X138806998Y-86728856D01*
X138814354Y-86775304D01*
X138871950Y-86888342D01*
X138871952Y-86888344D01*
X138871954Y-86888347D01*
X138961652Y-86978045D01*
X138961654Y-86978046D01*
X138961658Y-86978050D01*
X139069234Y-87032863D01*
X139074698Y-87035647D01*
X139168475Y-87050499D01*
X139168481Y-87050500D01*
X139531518Y-87050499D01*
X139625304Y-87035646D01*
X139738342Y-86978050D01*
X139828050Y-86888342D01*
X139885646Y-86775304D01*
X139885646Y-86775302D01*
X139885647Y-86775301D01*
X139900499Y-86681524D01*
X139900500Y-86681519D01*
X139900499Y-85593482D01*
X139885646Y-85499696D01*
X139828050Y-85386658D01*
X139828046Y-85386654D01*
X139828045Y-85386652D01*
X139738343Y-85296950D01*
X139730448Y-85291214D01*
X139731791Y-85289365D01*
X139690760Y-85250603D01*
X139678084Y-85220200D01*
X139676614Y-85214712D01*
X139676612Y-85214709D01*
X139676612Y-85214707D01*
X139676611Y-85214706D01*
X139630473Y-85134794D01*
X139630470Y-85134791D01*
X139630469Y-85134788D01*
X139565212Y-85069531D01*
X139478859Y-84983177D01*
X139445375Y-84921856D01*
X139450359Y-84852164D01*
X139492231Y-84796231D01*
X139547142Y-84773024D01*
X139625304Y-84760646D01*
X139738342Y-84703050D01*
X139828050Y-84613342D01*
X139885646Y-84500304D01*
X139885646Y-84500302D01*
X139885647Y-84500301D01*
X139900294Y-84407820D01*
X139900500Y-84406519D01*
X139900499Y-83318482D01*
X139885646Y-83224696D01*
X139828050Y-83111658D01*
X139828046Y-83111654D01*
X139828045Y-83111652D01*
X139736819Y-83020426D01*
X139703334Y-82959103D01*
X139700500Y-82932745D01*
X139700500Y-82268521D01*
X139720185Y-82201482D01*
X139750191Y-82169253D01*
X139751045Y-82168614D01*
X139789687Y-82139687D01*
X139871628Y-82030226D01*
X139919412Y-81902114D01*
X139922812Y-81870490D01*
X139925499Y-81845501D01*
X139925499Y-81845490D01*
X139925500Y-81845485D01*
X139925499Y-81304516D01*
X139921254Y-81265025D01*
X139919412Y-81247885D01*
X139898768Y-81192539D01*
X139871628Y-81119774D01*
X139789687Y-81010313D01*
X139682623Y-80930166D01*
X139680228Y-80928373D01*
X139680226Y-80928372D01*
X139552114Y-80880588D01*
X139552112Y-80880587D01*
X139552110Y-80880587D01*
X139495493Y-80874500D01*
X138904518Y-80874500D01*
X138904509Y-80874501D01*
X138847885Y-80880587D01*
X138719773Y-80928372D01*
X138610313Y-81010313D01*
X138528373Y-81119771D01*
X138528372Y-81119774D01*
X138489005Y-81225321D01*
X138480587Y-81247889D01*
X138474500Y-81304498D01*
X138474500Y-81845481D01*
X138474501Y-81845490D01*
X138480587Y-81902114D01*
X138513792Y-81991137D01*
X138528372Y-82030226D01*
X138610313Y-82139687D01*
X138657056Y-82174678D01*
X138719700Y-82221573D01*
X138719774Y-82221628D01*
X138847886Y-82269412D01*
X138888757Y-82273805D01*
X138953306Y-82300543D01*
X138993154Y-82357936D01*
X138999500Y-82397095D01*
X138999500Y-82932745D01*
X138979815Y-82999784D01*
X138963181Y-83020426D01*
X138871954Y-83111652D01*
X138871951Y-83111657D01*
X138871950Y-83111658D01*
X138866720Y-83121923D01*
X138814352Y-83224698D01*
X138799500Y-83318475D01*
X138799500Y-84406517D01*
X138805910Y-84446987D01*
X138814354Y-84500304D01*
X138871950Y-84613342D01*
X138871953Y-84613345D01*
X138877689Y-84621241D01*
X138876497Y-84622106D01*
X138904911Y-84674142D01*
X138899927Y-84743834D01*
X138858055Y-84799767D01*
X138792591Y-84824184D01*
X138783745Y-84824500D01*
X138524500Y-84824500D01*
X138457461Y-84804815D01*
X138411706Y-84752011D01*
X138400500Y-84700500D01*
X138400500Y-83113306D01*
X138400500Y-83113304D01*
X138376614Y-83024160D01*
X138375337Y-83021949D01*
X138362855Y-83000330D01*
X138362853Y-83000325D01*
X138362853Y-83000326D01*
X138330470Y-82944236D01*
X137836494Y-82450260D01*
X137803009Y-82388937D01*
X137807993Y-82319245D01*
X137849865Y-82263312D01*
X137872491Y-82250958D01*
X137872446Y-82250876D01*
X137880222Y-82246629D01*
X137880226Y-82246628D01*
X137989687Y-82164687D01*
X138071628Y-82055226D01*
X138119412Y-81927114D01*
X138122100Y-81902110D01*
X138125499Y-81870501D01*
X138125499Y-81870490D01*
X138125500Y-81870485D01*
X138125499Y-81329516D01*
X138119412Y-81272886D01*
X138110689Y-81249500D01*
X138100754Y-81222864D01*
X138071628Y-81144774D01*
X137989687Y-81035313D01*
X137923911Y-80986074D01*
X137880228Y-80953373D01*
X137880226Y-80953372D01*
X137752114Y-80905588D01*
X137752112Y-80905587D01*
X137752110Y-80905587D01*
X137695493Y-80899500D01*
X137104518Y-80899500D01*
X137104509Y-80899501D01*
X137047885Y-80905587D01*
X136919773Y-80953372D01*
X136810313Y-81035313D01*
X136728373Y-81144771D01*
X136680587Y-81272889D01*
X136674500Y-81329498D01*
X136674500Y-81870481D01*
X136674501Y-81870490D01*
X136680587Y-81927114D01*
X136716348Y-82022989D01*
X136728372Y-82055226D01*
X136810313Y-82164687D01*
X136919774Y-82246628D01*
X136919773Y-82246628D01*
X136968834Y-82264927D01*
X137024768Y-82306798D01*
X137049184Y-82372263D01*
X137049500Y-82381108D01*
X137049500Y-82555592D01*
X137070744Y-82634874D01*
X137073386Y-82644735D01*
X137073387Y-82644738D01*
X137119527Y-82724656D01*
X137119531Y-82724661D01*
X137176255Y-82781385D01*
X137209740Y-82842708D01*
X137204756Y-82912400D01*
X137162884Y-82968333D01*
X137144870Y-82979550D01*
X137061659Y-83021949D01*
X137061656Y-83021951D01*
X136977325Y-83106282D01*
X136916001Y-83139766D01*
X136846310Y-83134782D01*
X136801963Y-83106281D01*
X135686819Y-81991137D01*
X135653334Y-81929814D01*
X135650500Y-81903456D01*
X135650500Y-81757790D01*
X135670185Y-81690751D01*
X135722989Y-81644996D01*
X135731146Y-81641616D01*
X135792331Y-81618796D01*
X135907546Y-81532546D01*
X135993796Y-81417331D01*
X136044091Y-81282483D01*
X136050500Y-81222873D01*
X136050499Y-80177128D01*
X136044091Y-80117517D01*
X136022526Y-80059699D01*
X135993797Y-79982671D01*
X135993793Y-79982664D01*
X135907547Y-79867455D01*
X135907544Y-79867452D01*
X135792335Y-79781206D01*
X135792328Y-79781202D01*
X135731167Y-79758391D01*
X135675233Y-79716520D01*
X135650816Y-79651056D01*
X135650500Y-79642209D01*
X135650500Y-79196544D01*
X135670185Y-79129505D01*
X135686819Y-79108863D01*
X138708863Y-76086819D01*
X138770186Y-76053334D01*
X138796544Y-76050500D01*
X140175500Y-76050500D01*
X140242539Y-76070185D01*
G37*
%TD.AperFunction*%
%TA.AperFunction,Conductor*%
G36*
X177663936Y-75105971D02*
G01*
X177709691Y-75158775D01*
X177719635Y-75227933D01*
X177698201Y-75281794D01*
X177558282Y-75480014D01*
X177558278Y-75480020D01*
X177422927Y-75741235D01*
X177324409Y-76018438D01*
X177324404Y-76018454D01*
X177264554Y-76306475D01*
X177264552Y-76306485D01*
X177244475Y-76599998D01*
X177264551Y-76893509D01*
X177264552Y-76893511D01*
X177324404Y-77181541D01*
X177324409Y-77181557D01*
X177422927Y-77458760D01*
X177558278Y-77719975D01*
X177558282Y-77719981D01*
X177727932Y-77960321D01*
X177928743Y-78175336D01*
X177997557Y-78231320D01*
X178156951Y-78360997D01*
X178156953Y-78360998D01*
X178156954Y-78360999D01*
X178408319Y-78513858D01*
X178408324Y-78513860D01*
X178638544Y-78613858D01*
X178678159Y-78631065D01*
X178961445Y-78710438D01*
X179217681Y-78745657D01*
X179252901Y-78750498D01*
X179252902Y-78750498D01*
X179547099Y-78750498D01*
X179578520Y-78746178D01*
X179838555Y-78710438D01*
X180121841Y-78631065D01*
X180391682Y-78513857D01*
X180643049Y-78360997D01*
X180711459Y-78305340D01*
X180775885Y-78278303D01*
X180844702Y-78290388D01*
X180896060Y-78337760D01*
X180913714Y-78401529D01*
X180913714Y-95798466D01*
X180894029Y-95865505D01*
X180841225Y-95911260D01*
X180772067Y-95921204D01*
X180711460Y-95894655D01*
X180675629Y-95865505D01*
X180643049Y-95838999D01*
X180580140Y-95800743D01*
X180391680Y-95686137D01*
X180391675Y-95686135D01*
X180121845Y-95568932D01*
X179838560Y-95489559D01*
X179838556Y-95489558D01*
X179838555Y-95489558D01*
X179692826Y-95469528D01*
X179547099Y-95449498D01*
X179547098Y-95449498D01*
X179252902Y-95449498D01*
X179252901Y-95449498D01*
X178961445Y-95489558D01*
X178961439Y-95489559D01*
X178678154Y-95568932D01*
X178408324Y-95686135D01*
X178408319Y-95686137D01*
X178156954Y-95838996D01*
X177928743Y-96024659D01*
X177727932Y-96239674D01*
X177558282Y-96480014D01*
X177558278Y-96480020D01*
X177422927Y-96741235D01*
X177324409Y-97018438D01*
X177324404Y-97018454D01*
X177264552Y-97306484D01*
X177264551Y-97306486D01*
X177244475Y-97599998D01*
X177264551Y-97893509D01*
X177264552Y-97893511D01*
X177324404Y-98181541D01*
X177324409Y-98181557D01*
X177422927Y-98458760D01*
X177558277Y-98719973D01*
X177678138Y-98889778D01*
X177700716Y-98955899D01*
X177683962Y-99023730D01*
X177633196Y-99071736D01*
X177576833Y-99085286D01*
X171026170Y-99085286D01*
X170959131Y-99065601D01*
X170913376Y-99012797D01*
X170903432Y-98943639D01*
X170911609Y-98913834D01*
X170969735Y-98773501D01*
X170969737Y-98773497D01*
X171000500Y-98618842D01*
X171000500Y-98461158D01*
X171000500Y-98461155D01*
X171000499Y-98461153D01*
X170992073Y-98418793D01*
X170969737Y-98306503D01*
X170932800Y-98217328D01*
X170909397Y-98160827D01*
X170909390Y-98160814D01*
X170821789Y-98029711D01*
X170821786Y-98029707D01*
X170710292Y-97918213D01*
X170710288Y-97918210D01*
X170579185Y-97830609D01*
X170579172Y-97830602D01*
X170433501Y-97770264D01*
X170433489Y-97770261D01*
X170278845Y-97739500D01*
X170278842Y-97739500D01*
X170121158Y-97739500D01*
X170121155Y-97739500D01*
X169966510Y-97770261D01*
X169966498Y-97770264D01*
X169820827Y-97830602D01*
X169820814Y-97830609D01*
X169689711Y-97918210D01*
X169689707Y-97918213D01*
X169578213Y-98029707D01*
X169578210Y-98029711D01*
X169490609Y-98160814D01*
X169490602Y-98160827D01*
X169430264Y-98306498D01*
X169430261Y-98306510D01*
X169399500Y-98461153D01*
X169399500Y-98618846D01*
X169430261Y-98773489D01*
X169430264Y-98773501D01*
X169488391Y-98913834D01*
X169495860Y-98983304D01*
X169464584Y-99045782D01*
X169404495Y-99081434D01*
X169373830Y-99085286D01*
X168486170Y-99085286D01*
X168419131Y-99065601D01*
X168373376Y-99012797D01*
X168363432Y-98943639D01*
X168371609Y-98913834D01*
X168429735Y-98773501D01*
X168429737Y-98773497D01*
X168460500Y-98618842D01*
X168460500Y-98461158D01*
X168460500Y-98461155D01*
X168460499Y-98461153D01*
X168452073Y-98418793D01*
X168429737Y-98306503D01*
X168392800Y-98217328D01*
X168369397Y-98160827D01*
X168369390Y-98160814D01*
X168281789Y-98029711D01*
X168281786Y-98029707D01*
X168214260Y-97962181D01*
X168180775Y-97900858D01*
X168185759Y-97831166D01*
X168227631Y-97775233D01*
X168293095Y-97750816D01*
X168301941Y-97750500D01*
X169106142Y-97750500D01*
X169106144Y-97750500D01*
X169195288Y-97726614D01*
X169275212Y-97680470D01*
X169642686Y-97312994D01*
X169704007Y-97279511D01*
X169762457Y-97280901D01*
X169964592Y-97335063D01*
X170152918Y-97351539D01*
X170199999Y-97355659D01*
X170200000Y-97355659D01*
X170200001Y-97355659D01*
X170239234Y-97352226D01*
X170435408Y-97335063D01*
X170663663Y-97273903D01*
X170877830Y-97174035D01*
X171071401Y-97038495D01*
X171238495Y-96871401D01*
X171374035Y-96677830D01*
X171473903Y-96463663D01*
X171475177Y-96458910D01*
X171511538Y-96399247D01*
X171574384Y-96368715D01*
X171643760Y-96377006D01*
X171682634Y-96403316D01*
X172488181Y-97208862D01*
X172521666Y-97270185D01*
X172524500Y-97296543D01*
X172524500Y-98022870D01*
X172524501Y-98022876D01*
X172530908Y-98082483D01*
X172581202Y-98217328D01*
X172581206Y-98217335D01*
X172667452Y-98332544D01*
X172667455Y-98332547D01*
X172782664Y-98418793D01*
X172782671Y-98418797D01*
X172827618Y-98435561D01*
X172917517Y-98469091D01*
X172977127Y-98475500D01*
X173572872Y-98475499D01*
X173632483Y-98469091D01*
X173767331Y-98418796D01*
X173882546Y-98332546D01*
X173968796Y-98217331D01*
X174019091Y-98082483D01*
X174025500Y-98022873D01*
X174025499Y-96977128D01*
X174019091Y-96917517D01*
X174001891Y-96871402D01*
X173968797Y-96782671D01*
X173968793Y-96782664D01*
X173882547Y-96667455D01*
X173882544Y-96667452D01*
X173767335Y-96581206D01*
X173767328Y-96581202D01*
X173632486Y-96530910D01*
X173632485Y-96530909D01*
X173632483Y-96530909D01*
X173572873Y-96524500D01*
X173572863Y-96524500D01*
X172977129Y-96524500D01*
X172977123Y-96524501D01*
X172917512Y-96530909D01*
X172907739Y-96534554D01*
X172838047Y-96539535D01*
X172776732Y-96506051D01*
X172407800Y-96137119D01*
X171990212Y-95719530D01*
X171990211Y-95719529D01*
X171990208Y-95719527D01*
X171910290Y-95673387D01*
X171910289Y-95673386D01*
X171910288Y-95673386D01*
X171821144Y-95649500D01*
X171821143Y-95649500D01*
X171599374Y-95649500D01*
X171532335Y-95629815D01*
X171486580Y-95577011D01*
X171479599Y-95557594D01*
X171473904Y-95536342D01*
X171473903Y-95536337D01*
X171374035Y-95322171D01*
X171361614Y-95304431D01*
X171238494Y-95128597D01*
X171071402Y-94961506D01*
X171071395Y-94961501D01*
X170877834Y-94825967D01*
X170877830Y-94825965D01*
X170827003Y-94802264D01*
X170663663Y-94726097D01*
X170663659Y-94726096D01*
X170663657Y-94726095D01*
X170642406Y-94720401D01*
X170582746Y-94684036D01*
X170552217Y-94621188D01*
X170550500Y-94600626D01*
X170550500Y-93491358D01*
X170550499Y-93491353D01*
X170544562Y-93469197D01*
X170526614Y-93402212D01*
X170523762Y-93397273D01*
X170480469Y-93322287D01*
X168981428Y-91823246D01*
X168947943Y-91761923D01*
X168952927Y-91692231D01*
X168958619Y-91679281D01*
X168960646Y-91675304D01*
X168960646Y-91675301D01*
X168965079Y-91666603D01*
X168967553Y-91667863D01*
X168998427Y-91622701D01*
X169062783Y-91595496D01*
X169131630Y-91607403D01*
X169164612Y-91631005D01*
X169179519Y-91645912D01*
X169179520Y-91645913D01*
X169254087Y-91720480D01*
X169345413Y-91773207D01*
X169447273Y-91800500D01*
X169457746Y-91800500D01*
X169524785Y-91820185D01*
X169545428Y-91836820D01*
X169586653Y-91878046D01*
X169586655Y-91878047D01*
X169586658Y-91878050D01*
X169692270Y-91931862D01*
X169699698Y-91935647D01*
X169793475Y-91950499D01*
X169793481Y-91950500D01*
X170881518Y-91950499D01*
X170881519Y-91950499D01*
X170887404Y-91949566D01*
X170907675Y-91946356D01*
X170976967Y-91955310D01*
X171014755Y-91981148D01*
X172813181Y-93779573D01*
X172846666Y-93840896D01*
X172849500Y-93867254D01*
X172849500Y-94071138D01*
X172829815Y-94138177D01*
X172789581Y-94175637D01*
X172789769Y-94175888D01*
X172787441Y-94177630D01*
X172784932Y-94179967D01*
X172782670Y-94181202D01*
X172667455Y-94267452D01*
X172667452Y-94267455D01*
X172581206Y-94382664D01*
X172581202Y-94382671D01*
X172530908Y-94517517D01*
X172526158Y-94561706D01*
X172524501Y-94577123D01*
X172524500Y-94577135D01*
X172524500Y-95622870D01*
X172524501Y-95622876D01*
X172530908Y-95682483D01*
X172581202Y-95817328D01*
X172581206Y-95817335D01*
X172667452Y-95932544D01*
X172667455Y-95932547D01*
X172782664Y-96018793D01*
X172782671Y-96018797D01*
X172798399Y-96024663D01*
X172917517Y-96069091D01*
X172977127Y-96075500D01*
X173572872Y-96075499D01*
X173632483Y-96069091D01*
X173767331Y-96018796D01*
X173882546Y-95932546D01*
X173968796Y-95817331D01*
X174019091Y-95682483D01*
X174025500Y-95622873D01*
X174025499Y-94577128D01*
X174019091Y-94517517D01*
X174019090Y-94517515D01*
X173968797Y-94382671D01*
X173968793Y-94382664D01*
X173882547Y-94267455D01*
X173882544Y-94267452D01*
X173767334Y-94181205D01*
X173731164Y-94167714D01*
X173675231Y-94125841D01*
X173650816Y-94060376D01*
X173650500Y-94051533D01*
X173650500Y-93712729D01*
X173650501Y-93712716D01*
X173650501Y-93597276D01*
X173650501Y-93597274D01*
X173623207Y-93495413D01*
X173620865Y-93491356D01*
X173618355Y-93487009D01*
X173570482Y-93404090D01*
X173570481Y-93404089D01*
X173570480Y-93404087D01*
X173495913Y-93329520D01*
X173495912Y-93329519D01*
X173491582Y-93325189D01*
X173491571Y-93325179D01*
X171245916Y-91079522D01*
X171245913Y-91079520D01*
X171230561Y-91070656D01*
X171182348Y-91020092D01*
X171182254Y-91019908D01*
X171178050Y-91011658D01*
X171178047Y-91011655D01*
X171178045Y-91011652D01*
X171088347Y-90921954D01*
X171088344Y-90921952D01*
X171088342Y-90921950D01*
X171000816Y-90877353D01*
X170975301Y-90864352D01*
X170881524Y-90849500D01*
X169793482Y-90849500D01*
X169699692Y-90864354D01*
X169680794Y-90873984D01*
X169612124Y-90886880D01*
X169547384Y-90860603D01*
X169507128Y-90803496D01*
X169500500Y-90763499D01*
X169500500Y-90154755D01*
X169520185Y-90087716D01*
X169536819Y-90067074D01*
X169548912Y-90054981D01*
X169610235Y-90021496D01*
X169679927Y-90026480D01*
X169692887Y-90032177D01*
X169699695Y-90035646D01*
X169699698Y-90035647D01*
X169793475Y-90050499D01*
X169793481Y-90050500D01*
X170881518Y-90050499D01*
X170975304Y-90035646D01*
X171088342Y-89978050D01*
X171129572Y-89936820D01*
X171190895Y-89903334D01*
X171217254Y-89900500D01*
X171605907Y-89900500D01*
X171658311Y-89912118D01*
X171753270Y-89956397D01*
X171753271Y-89956397D01*
X171753277Y-89956400D01*
X171803409Y-89963000D01*
X172096590Y-89962999D01*
X172096592Y-89962999D01*
X172113301Y-89960799D01*
X172146723Y-89956400D01*
X172166485Y-89947185D01*
X172222596Y-89921021D01*
X172291673Y-89910529D01*
X172327404Y-89921021D01*
X172403270Y-89956397D01*
X172403271Y-89956397D01*
X172403277Y-89956400D01*
X172453409Y-89963000D01*
X172746590Y-89962999D01*
X172746592Y-89962999D01*
X172763301Y-89960799D01*
X172796723Y-89956400D01*
X172816485Y-89947185D01*
X172872596Y-89921021D01*
X172941673Y-89910529D01*
X172977404Y-89921021D01*
X173053270Y-89956397D01*
X173053271Y-89956397D01*
X173053277Y-89956400D01*
X173103409Y-89963000D01*
X173396590Y-89962999D01*
X173396592Y-89962999D01*
X173413301Y-89960799D01*
X173446723Y-89956400D01*
X173466485Y-89947185D01*
X173541689Y-89912118D01*
X173594093Y-89900500D01*
X174327746Y-89900500D01*
X174394785Y-89920185D01*
X174415428Y-89936820D01*
X174456653Y-89978046D01*
X174456655Y-89978047D01*
X174456658Y-89978050D01*
X174562888Y-90032177D01*
X174569698Y-90035647D01*
X174663475Y-90050499D01*
X174663481Y-90050500D01*
X175520260Y-90050499D01*
X175587299Y-90070183D01*
X175633054Y-90122987D01*
X175640035Y-90142405D01*
X175658719Y-90212135D01*
X175734485Y-90343365D01*
X175841635Y-90450515D01*
X175972865Y-90526281D01*
X176119234Y-90565500D01*
X176119236Y-90565500D01*
X176270764Y-90565500D01*
X176270766Y-90565500D01*
X176417135Y-90526281D01*
X176548365Y-90450515D01*
X176655515Y-90343365D01*
X176731281Y-90212135D01*
X176770500Y-90065766D01*
X176770500Y-89914234D01*
X176731281Y-89767865D01*
X176655515Y-89636635D01*
X176548365Y-89529485D01*
X176431684Y-89462119D01*
X176417137Y-89453720D01*
X176417136Y-89453719D01*
X176417135Y-89453719D01*
X176389749Y-89446381D01*
X176330091Y-89410016D01*
X176299563Y-89347169D01*
X176307858Y-89277793D01*
X176334162Y-89238929D01*
X176880470Y-88692622D01*
X176926614Y-88612698D01*
X176950500Y-88523553D01*
X176950500Y-88431266D01*
X176950500Y-85801544D01*
X176970185Y-85734505D01*
X176986819Y-85713863D01*
X177107201Y-85593481D01*
X177275469Y-85425213D01*
X177321614Y-85345289D01*
X177345500Y-85256145D01*
X177345500Y-78613856D01*
X177321614Y-78524712D01*
X177312300Y-78508580D01*
X177275469Y-78444787D01*
X175185212Y-76354530D01*
X175185211Y-76354529D01*
X175185208Y-76354527D01*
X175105290Y-76308387D01*
X175105285Y-76308385D01*
X175098194Y-76306485D01*
X175098193Y-76306484D01*
X175032763Y-76288953D01*
X175016144Y-76284500D01*
X172383856Y-76284500D01*
X172301806Y-76306484D01*
X172301803Y-76306486D01*
X172298257Y-76307436D01*
X172294708Y-76308387D01*
X172294706Y-76308388D01*
X172214794Y-76354526D01*
X172214789Y-76354530D01*
X171819159Y-76750158D01*
X171757836Y-76783642D01*
X171688144Y-76778658D01*
X171686684Y-76778103D01*
X171616779Y-76751022D01*
X171546198Y-76723679D01*
X171336610Y-76684500D01*
X171123390Y-76684500D01*
X170913802Y-76723679D01*
X170913799Y-76723679D01*
X170913799Y-76723680D01*
X170714982Y-76800701D01*
X170714980Y-76800702D01*
X170533699Y-76912947D01*
X170376127Y-77056593D01*
X170247632Y-77226746D01*
X170152596Y-77417605D01*
X170152596Y-77417607D01*
X170094244Y-77622689D01*
X170078580Y-77791740D01*
X170074571Y-77835000D01*
X170094244Y-78047310D01*
X170124106Y-78152264D01*
X170152596Y-78252392D01*
X170152596Y-78252394D01*
X170247632Y-78443253D01*
X170300951Y-78513858D01*
X170376128Y-78613407D01*
X170533698Y-78757052D01*
X170714981Y-78869298D01*
X170913802Y-78946321D01*
X171123390Y-78985500D01*
X171123392Y-78985500D01*
X171336608Y-78985500D01*
X171336610Y-78985500D01*
X171546198Y-78946321D01*
X171745019Y-78869298D01*
X171926302Y-78757052D01*
X172083872Y-78613407D01*
X172212366Y-78443255D01*
X172239027Y-78389712D01*
X172307403Y-78252394D01*
X172307403Y-78252393D01*
X172307405Y-78252389D01*
X172365756Y-78047310D01*
X172372029Y-77979611D01*
X172397815Y-77914675D01*
X172454615Y-77873987D01*
X172524396Y-77870467D01*
X172585003Y-77905232D01*
X172617193Y-77967245D01*
X172619500Y-77991053D01*
X172619500Y-78759678D01*
X172634032Y-78832738D01*
X172638707Y-78844022D01*
X172635140Y-78845499D01*
X172649480Y-78891262D01*
X172649500Y-78893501D01*
X172649500Y-79214520D01*
X172629815Y-79281559D01*
X172593371Y-79315031D01*
X172594595Y-79316689D01*
X172587118Y-79322206D01*
X172587118Y-79322207D01*
X172553664Y-79346897D01*
X172477850Y-79402850D01*
X172397207Y-79512117D01*
X172397206Y-79512119D01*
X172352353Y-79640298D01*
X172352353Y-79640300D01*
X172349500Y-79670730D01*
X172349500Y-80329269D01*
X172352353Y-80359699D01*
X172352353Y-80359701D01*
X172393618Y-80477625D01*
X172397207Y-80487882D01*
X172477850Y-80597150D01*
X172587118Y-80677793D01*
X172629845Y-80692744D01*
X172715299Y-80722646D01*
X172745730Y-80725500D01*
X172745734Y-80725500D01*
X173254270Y-80725500D01*
X173284699Y-80722646D01*
X173284701Y-80722646D01*
X173348790Y-80700219D01*
X173412882Y-80677793D01*
X173522150Y-80597150D01*
X173602793Y-80487882D01*
X173625620Y-80422646D01*
X173647646Y-80359701D01*
X173647646Y-80359699D01*
X173650500Y-80329269D01*
X173650500Y-79670730D01*
X173647646Y-79640300D01*
X173647646Y-79640298D01*
X173602793Y-79512119D01*
X173602792Y-79512117D01*
X173522150Y-79402850D01*
X173412882Y-79322207D01*
X173412881Y-79322206D01*
X173405405Y-79316689D01*
X173406862Y-79314714D01*
X173366485Y-79275420D01*
X173350500Y-79214520D01*
X173350500Y-79109500D01*
X173370185Y-79042461D01*
X173422989Y-78996706D01*
X173474500Y-78985500D01*
X174694676Y-78985500D01*
X174694677Y-78985499D01*
X174767740Y-78970966D01*
X174850601Y-78915601D01*
X174905966Y-78832740D01*
X174920500Y-78759674D01*
X174920500Y-77380544D01*
X174940185Y-77313505D01*
X174992989Y-77267750D01*
X175062147Y-77257806D01*
X175125703Y-77286831D01*
X175132181Y-77292863D01*
X176608181Y-78768863D01*
X176641666Y-78830186D01*
X176644500Y-78856544D01*
X176644500Y-83590213D01*
X176624815Y-83657252D01*
X176572011Y-83703007D01*
X176502853Y-83712951D01*
X176458501Y-83697601D01*
X176417136Y-83673719D01*
X176343950Y-83654109D01*
X176270766Y-83634500D01*
X176119234Y-83634500D01*
X175972863Y-83673719D01*
X175841635Y-83749485D01*
X175841632Y-83749487D01*
X175734487Y-83856632D01*
X175734485Y-83856635D01*
X175658719Y-83987863D01*
X175655601Y-83999500D01*
X175647249Y-84030674D01*
X175640036Y-84057593D01*
X175603671Y-84117254D01*
X175540824Y-84147783D01*
X175520261Y-84149500D01*
X174663482Y-84149500D01*
X174582519Y-84162323D01*
X174569696Y-84164354D01*
X174456658Y-84221950D01*
X174456657Y-84221951D01*
X174456652Y-84221954D01*
X174366954Y-84311652D01*
X174366951Y-84311657D01*
X174309352Y-84424698D01*
X174294500Y-84518475D01*
X174294500Y-84881517D01*
X174309354Y-84975307D01*
X174329541Y-85014925D01*
X174342437Y-85083594D01*
X174331439Y-85123623D01*
X174300740Y-85189458D01*
X174294500Y-85236859D01*
X174294500Y-85463131D01*
X174294501Y-85463138D01*
X174300741Y-85510545D01*
X174318018Y-85547596D01*
X174328509Y-85616673D01*
X174318018Y-85652402D01*
X174300742Y-85689451D01*
X174300740Y-85689458D01*
X174294500Y-85736860D01*
X174294500Y-85882073D01*
X174274815Y-85949112D01*
X174222011Y-85994867D01*
X174202599Y-86001846D01*
X174133818Y-86020275D01*
X174101730Y-86024500D01*
X167208709Y-86024500D01*
X167141670Y-86004815D01*
X167095915Y-85952011D01*
X167085971Y-85882853D01*
X167092527Y-85857167D01*
X167092529Y-85857162D01*
X167094412Y-85852114D01*
X167099849Y-85801544D01*
X167100499Y-85795501D01*
X167100499Y-85795490D01*
X167100500Y-85795485D01*
X167100499Y-85522436D01*
X167120183Y-85455398D01*
X167172987Y-85409643D01*
X167176984Y-85407902D01*
X167302625Y-85355861D01*
X167417621Y-85267621D01*
X167505861Y-85152625D01*
X167561330Y-85018709D01*
X167580250Y-84875000D01*
X167561330Y-84731291D01*
X167516105Y-84622106D01*
X167505862Y-84597377D01*
X167505861Y-84597376D01*
X167505861Y-84597375D01*
X167417621Y-84482379D01*
X167302625Y-84394139D01*
X167302624Y-84394138D01*
X167302622Y-84394137D01*
X167168712Y-84338671D01*
X167168710Y-84338670D01*
X167168709Y-84338670D01*
X167096854Y-84329210D01*
X167025001Y-84319750D01*
X167024999Y-84319750D01*
X166881291Y-84338670D01*
X166881287Y-84338671D01*
X166859450Y-84347716D01*
X166789980Y-84355183D01*
X166727502Y-84323907D01*
X166691851Y-84263817D01*
X166688000Y-84233154D01*
X166688000Y-84074000D01*
X166707685Y-84006961D01*
X166760489Y-83961206D01*
X166812000Y-83950000D01*
X168750000Y-83950000D01*
X168750000Y-83574500D01*
X168769685Y-83507461D01*
X168822489Y-83461706D01*
X168874000Y-83450500D01*
X169413908Y-83450500D01*
X169480947Y-83470185D01*
X169500412Y-83488086D01*
X169501628Y-83486871D01*
X169507372Y-83492615D01*
X169507377Y-83492619D01*
X169507379Y-83492621D01*
X169622375Y-83580861D01*
X169756291Y-83636330D01*
X169883280Y-83653048D01*
X169899999Y-83655250D01*
X169900000Y-83655250D01*
X169900001Y-83655250D01*
X169914977Y-83653278D01*
X170043709Y-83636330D01*
X170177625Y-83580861D01*
X170292621Y-83492621D01*
X170292623Y-83492617D01*
X170292627Y-83492615D01*
X170298372Y-83486871D01*
X170300888Y-83489387D01*
X170344183Y-83457797D01*
X170386092Y-83450500D01*
X171203217Y-83450500D01*
X171270256Y-83470185D01*
X171316011Y-83522989D01*
X171319389Y-83531142D01*
X171328372Y-83555226D01*
X171328373Y-83555228D01*
X171339570Y-83570185D01*
X171410313Y-83664687D01*
X171519774Y-83746628D01*
X171647886Y-83794412D01*
X171704515Y-83800500D01*
X172295484Y-83800499D01*
X172352114Y-83794412D01*
X172480226Y-83746628D01*
X172589687Y-83664687D01*
X172671628Y-83555226D01*
X172719412Y-83427114D01*
X172724073Y-83383762D01*
X172725499Y-83370501D01*
X172725499Y-83370494D01*
X172725500Y-83370485D01*
X172725499Y-82829516D01*
X172719412Y-82772886D01*
X172710689Y-82749500D01*
X172694979Y-82707379D01*
X172671628Y-82644774D01*
X172589687Y-82535313D01*
X172523911Y-82486074D01*
X172480228Y-82453373D01*
X172480226Y-82453372D01*
X172352114Y-82405588D01*
X172352112Y-82405587D01*
X172352110Y-82405587D01*
X172295493Y-82399500D01*
X171704518Y-82399500D01*
X171704509Y-82399501D01*
X171647885Y-82405587D01*
X171519773Y-82453372D01*
X171410313Y-82535313D01*
X171328373Y-82644771D01*
X171328372Y-82644774D01*
X171319397Y-82668836D01*
X171277527Y-82724767D01*
X171212063Y-82749184D01*
X171203217Y-82749500D01*
X170386092Y-82749500D01*
X170319053Y-82729815D01*
X170299587Y-82711913D01*
X170298372Y-82713129D01*
X170292627Y-82707384D01*
X170292621Y-82707379D01*
X170177625Y-82619139D01*
X170177624Y-82619138D01*
X170177622Y-82619137D01*
X170043712Y-82563671D01*
X170043710Y-82563670D01*
X170043709Y-82563670D01*
X169963439Y-82553102D01*
X169900001Y-82544750D01*
X169899999Y-82544750D01*
X169756291Y-82563670D01*
X169756287Y-82563671D01*
X169622377Y-82619137D01*
X169507372Y-82707384D01*
X169501628Y-82713129D01*
X169499111Y-82710612D01*
X169455817Y-82742203D01*
X169413908Y-82749500D01*
X168874000Y-82749500D01*
X168806961Y-82729815D01*
X168761206Y-82677011D01*
X168750000Y-82625500D01*
X168750000Y-80750000D01*
X168181790Y-80750000D01*
X168114751Y-80730315D01*
X168068996Y-80677511D01*
X168059052Y-80608353D01*
X168088077Y-80544797D01*
X168134338Y-80511439D01*
X168154092Y-80503256D01*
X168177625Y-80493509D01*
X168292621Y-80405269D01*
X168380861Y-80290273D01*
X168418253Y-80200000D01*
X169944750Y-80200000D01*
X169956634Y-80290270D01*
X169963670Y-80343708D01*
X169963671Y-80343712D01*
X170019137Y-80477622D01*
X170019138Y-80477624D01*
X170019139Y-80477625D01*
X170107379Y-80592621D01*
X170222375Y-80680861D01*
X170356291Y-80736330D01*
X170483280Y-80753048D01*
X170499999Y-80755250D01*
X170500000Y-80755250D01*
X170500001Y-80755250D01*
X170514977Y-80753278D01*
X170643709Y-80736330D01*
X170777625Y-80680861D01*
X170783818Y-80676108D01*
X170848985Y-80650911D01*
X170917431Y-80664947D01*
X170932940Y-80674710D01*
X170934836Y-80676109D01*
X170937118Y-80677793D01*
X170979845Y-80692744D01*
X171065299Y-80722646D01*
X171095730Y-80725500D01*
X171095734Y-80725500D01*
X171604270Y-80725500D01*
X171634699Y-80722646D01*
X171634701Y-80722646D01*
X171698790Y-80700219D01*
X171762882Y-80677793D01*
X171872150Y-80597150D01*
X171952793Y-80487882D01*
X171975620Y-80422646D01*
X171997646Y-80359701D01*
X171997646Y-80359699D01*
X172000500Y-80329269D01*
X172000500Y-79670730D01*
X171997646Y-79640300D01*
X171997646Y-79640298D01*
X171952793Y-79512119D01*
X171952792Y-79512117D01*
X171872150Y-79402850D01*
X171762882Y-79322207D01*
X171762880Y-79322206D01*
X171634700Y-79277353D01*
X171604270Y-79274500D01*
X171604266Y-79274500D01*
X171095734Y-79274500D01*
X171095730Y-79274500D01*
X171065300Y-79277353D01*
X171065298Y-79277353D01*
X170937119Y-79322206D01*
X170937117Y-79322207D01*
X170827850Y-79402850D01*
X170747207Y-79512117D01*
X170725464Y-79574254D01*
X170684741Y-79631030D01*
X170640555Y-79653063D01*
X170638915Y-79653503D01*
X170590598Y-79656677D01*
X170500001Y-79644750D01*
X170499999Y-79644750D01*
X170356291Y-79663670D01*
X170356287Y-79663671D01*
X170222377Y-79719137D01*
X170107379Y-79807379D01*
X170019137Y-79922377D01*
X169963671Y-80056287D01*
X169963670Y-80056291D01*
X169944750Y-80200000D01*
X168418253Y-80200000D01*
X168436330Y-80156357D01*
X168455250Y-80012648D01*
X168436330Y-79868939D01*
X168380861Y-79735023D01*
X168292621Y-79620027D01*
X168177625Y-79531787D01*
X168177624Y-79531786D01*
X168177622Y-79531785D01*
X168043712Y-79476319D01*
X168043710Y-79476318D01*
X168043709Y-79476318D01*
X167968801Y-79466456D01*
X167900001Y-79457398D01*
X167899999Y-79457398D01*
X167756291Y-79476318D01*
X167756287Y-79476319D01*
X167614866Y-79534897D01*
X167614059Y-79532948D01*
X167557015Y-79546774D01*
X167490993Y-79523907D01*
X167447815Y-79468976D01*
X167445902Y-79463871D01*
X167427793Y-79412119D01*
X167427792Y-79412117D01*
X167347150Y-79302850D01*
X167237882Y-79222207D01*
X167237880Y-79222206D01*
X167109700Y-79177353D01*
X167079270Y-79174500D01*
X167079266Y-79174500D01*
X166646544Y-79174500D01*
X166579505Y-79154815D01*
X166558863Y-79138181D01*
X166340412Y-78919730D01*
X166306927Y-78858407D01*
X166311911Y-78788715D01*
X166344555Y-78740412D01*
X166365252Y-78721544D01*
X166483872Y-78613407D01*
X166612366Y-78443255D01*
X166639027Y-78389712D01*
X166707403Y-78252394D01*
X166707403Y-78252393D01*
X166707405Y-78252389D01*
X166765756Y-78047310D01*
X166785429Y-77835000D01*
X166765756Y-77622690D01*
X166707405Y-77417611D01*
X166707403Y-77417606D01*
X166707403Y-77417605D01*
X166612367Y-77226746D01*
X166483872Y-77056593D01*
X166326302Y-76912948D01*
X166145019Y-76800702D01*
X166145017Y-76800701D01*
X166016779Y-76751022D01*
X165946198Y-76723679D01*
X165736610Y-76684500D01*
X165523390Y-76684500D01*
X165313802Y-76723679D01*
X165313799Y-76723679D01*
X165313799Y-76723680D01*
X165306226Y-76726614D01*
X165173313Y-76778104D01*
X165103692Y-76783966D01*
X165041951Y-76751256D01*
X165040840Y-76750158D01*
X164410213Y-76119531D01*
X164410208Y-76119527D01*
X164330290Y-76073387D01*
X164330289Y-76073386D01*
X164330288Y-76073386D01*
X164241144Y-76049500D01*
X164241143Y-76049500D01*
X163763847Y-76049500D01*
X163696808Y-76029815D01*
X163651053Y-75977011D01*
X163646812Y-75966471D01*
X163627793Y-75912118D01*
X163547150Y-75802850D01*
X163437882Y-75722207D01*
X163437880Y-75722206D01*
X163309700Y-75677353D01*
X163279270Y-75674500D01*
X163279266Y-75674500D01*
X162770734Y-75674500D01*
X162770730Y-75674500D01*
X162740300Y-75677353D01*
X162740298Y-75677353D01*
X162612119Y-75722206D01*
X162612117Y-75722207D01*
X162502850Y-75802850D01*
X162422207Y-75912117D01*
X162422206Y-75912119D01*
X162377353Y-76040298D01*
X162377353Y-76040300D01*
X162374500Y-76070730D01*
X162374500Y-76729269D01*
X162377353Y-76759699D01*
X162377353Y-76759701D01*
X162417135Y-76873387D01*
X162422207Y-76887882D01*
X162502850Y-76997150D01*
X162612118Y-77077793D01*
X162654845Y-77092744D01*
X162740299Y-77122646D01*
X162770730Y-77125500D01*
X162770734Y-77125500D01*
X163279270Y-77125500D01*
X163309699Y-77122646D01*
X163309701Y-77122646D01*
X163373790Y-77100219D01*
X163437882Y-77077793D01*
X163547150Y-76997150D01*
X163627793Y-76887882D01*
X163646806Y-76833543D01*
X163687527Y-76776769D01*
X163752480Y-76751022D01*
X163763847Y-76750500D01*
X163998456Y-76750500D01*
X164065495Y-76770185D01*
X164086137Y-76786819D01*
X164544134Y-77244816D01*
X164577619Y-77306139D01*
X164572635Y-77375831D01*
X164567455Y-77387765D01*
X164552596Y-77417607D01*
X164494244Y-77622689D01*
X164478580Y-77791740D01*
X164474571Y-77835000D01*
X164494244Y-78047310D01*
X164524106Y-78152264D01*
X164552596Y-78252392D01*
X164552596Y-78252394D01*
X164647632Y-78443253D01*
X164747708Y-78575773D01*
X164772400Y-78641134D01*
X164757835Y-78709469D01*
X164708638Y-78759081D01*
X164648754Y-78774500D01*
X164621544Y-78774500D01*
X164554505Y-78754815D01*
X164533863Y-78738181D01*
X164215213Y-78419531D01*
X164215208Y-78419527D01*
X164135290Y-78373387D01*
X164135289Y-78373386D01*
X164135288Y-78373386D01*
X164046144Y-78349500D01*
X164046143Y-78349500D01*
X159924500Y-78349500D01*
X159857461Y-78329815D01*
X159811706Y-78277011D01*
X159801766Y-78231320D01*
X159801097Y-78231386D01*
X159800531Y-78225645D01*
X159800500Y-78225500D01*
X159800500Y-78225323D01*
X159800499Y-78225321D01*
X159785967Y-78152264D01*
X159785966Y-78152260D01*
X159730601Y-78069399D01*
X159706209Y-78053101D01*
X159661405Y-77999491D01*
X159652698Y-77930166D01*
X159682852Y-77867138D01*
X159706210Y-77846898D01*
X159730601Y-77830601D01*
X159785966Y-77747740D01*
X159800500Y-77674674D01*
X159800500Y-76725326D01*
X159800500Y-76725323D01*
X159800499Y-76725321D01*
X159785967Y-76652264D01*
X159785966Y-76652260D01*
X159751046Y-76599998D01*
X159730601Y-76569399D01*
X159706209Y-76553101D01*
X159661405Y-76499491D01*
X159652698Y-76430166D01*
X159682852Y-76367138D01*
X159706210Y-76346898D01*
X159730601Y-76330601D01*
X159768550Y-76273804D01*
X159822161Y-76229000D01*
X159891486Y-76220293D01*
X159954514Y-76250447D01*
X159959333Y-76255015D01*
X160384787Y-76680469D01*
X160462481Y-76725326D01*
X160462483Y-76725327D01*
X160462482Y-76725327D01*
X160464236Y-76726339D01*
X160464712Y-76726614D01*
X160553856Y-76750500D01*
X160636153Y-76750500D01*
X160703192Y-76770185D01*
X160748947Y-76822989D01*
X160753187Y-76833528D01*
X160772207Y-76887882D01*
X160852850Y-76997150D01*
X160962118Y-77077793D01*
X161004845Y-77092744D01*
X161090299Y-77122646D01*
X161120730Y-77125500D01*
X161120734Y-77125500D01*
X161629270Y-77125500D01*
X161659699Y-77122646D01*
X161659701Y-77122646D01*
X161723790Y-77100219D01*
X161787882Y-77077793D01*
X161897150Y-76997150D01*
X161977793Y-76887882D01*
X162005141Y-76809725D01*
X162022646Y-76759701D01*
X162022646Y-76759699D01*
X162025500Y-76729269D01*
X162025500Y-76070730D01*
X162022646Y-76040300D01*
X162022646Y-76040298D01*
X161989006Y-75944163D01*
X161977793Y-75912118D01*
X161897150Y-75802850D01*
X161787882Y-75722207D01*
X161787880Y-75722206D01*
X161659700Y-75677353D01*
X161629270Y-75674500D01*
X161629266Y-75674500D01*
X161120734Y-75674500D01*
X161120730Y-75674500D01*
X161090300Y-75677353D01*
X161090298Y-75677353D01*
X160962119Y-75722206D01*
X160962117Y-75722207D01*
X160852850Y-75802850D01*
X160787957Y-75890777D01*
X160732309Y-75933028D01*
X160662653Y-75938486D01*
X160601104Y-75905418D01*
X160600506Y-75904824D01*
X160115213Y-75419531D01*
X160115208Y-75419527D01*
X160035290Y-75373387D01*
X160035289Y-75373386D01*
X160035288Y-75373386D01*
X159946144Y-75349500D01*
X159946143Y-75349500D01*
X159924500Y-75349500D01*
X159857461Y-75329815D01*
X159811706Y-75277011D01*
X159801765Y-75231318D01*
X159801097Y-75231384D01*
X159800532Y-75225648D01*
X159800500Y-75225500D01*
X159800500Y-75225320D01*
X159800216Y-75222436D01*
X159800500Y-75220938D01*
X159800500Y-75219234D01*
X159800823Y-75219234D01*
X159813237Y-75153790D01*
X159861303Y-75103082D01*
X159923619Y-75086286D01*
X177596897Y-75086286D01*
X177663936Y-75105971D01*
G37*
%TD.AperFunction*%
%TA.AperFunction,Conductor*%
G36*
X157742539Y-79820185D02*
G01*
X157788294Y-79872989D01*
X157799500Y-79924500D01*
X157799500Y-80674678D01*
X157814032Y-80747735D01*
X157814033Y-80747739D01*
X157814034Y-80747740D01*
X157869399Y-80830601D01*
X157893790Y-80846898D01*
X157938594Y-80900511D01*
X157947301Y-80969836D01*
X157917146Y-81032863D01*
X157893791Y-81053100D01*
X157869399Y-81069399D01*
X157814033Y-81152260D01*
X157814032Y-81152264D01*
X157799500Y-81225321D01*
X157799500Y-82174678D01*
X157814032Y-82247735D01*
X157814033Y-82247739D01*
X157831450Y-82273805D01*
X157869399Y-82330601D01*
X157893790Y-82346898D01*
X157938594Y-82400511D01*
X157947301Y-82469836D01*
X157917146Y-82532863D01*
X157893791Y-82553100D01*
X157890063Y-82555592D01*
X157869399Y-82569399D01*
X157814033Y-82652260D01*
X157814032Y-82652264D01*
X157799500Y-82725321D01*
X157799500Y-83674678D01*
X157814032Y-83747735D01*
X157814033Y-83747739D01*
X157814034Y-83747740D01*
X157869399Y-83830601D01*
X157893790Y-83846898D01*
X157938594Y-83900511D01*
X157947301Y-83969836D01*
X157917146Y-84032863D01*
X157893791Y-84053100D01*
X157869399Y-84069399D01*
X157814033Y-84152260D01*
X157814032Y-84152264D01*
X157799500Y-84225321D01*
X157799500Y-85174678D01*
X157814032Y-85247735D01*
X157814033Y-85247739D01*
X157819649Y-85256144D01*
X157869399Y-85330601D01*
X157893790Y-85346898D01*
X157938594Y-85400511D01*
X157947301Y-85469836D01*
X157917146Y-85532863D01*
X157893791Y-85553100D01*
X157880745Y-85561818D01*
X157869399Y-85569399D01*
X157814033Y-85652260D01*
X157814032Y-85652264D01*
X157799500Y-85725321D01*
X157799500Y-86674678D01*
X157814032Y-86747735D01*
X157814033Y-86747739D01*
X157818894Y-86755014D01*
X157869399Y-86830601D01*
X157893790Y-86846898D01*
X157938594Y-86900511D01*
X157947301Y-86969836D01*
X157917146Y-87032863D01*
X157893791Y-87053100D01*
X157869399Y-87069399D01*
X157814033Y-87152260D01*
X157814032Y-87152264D01*
X157799500Y-87225321D01*
X157799500Y-87225500D01*
X157799473Y-87225589D01*
X157798903Y-87231386D01*
X157797803Y-87231277D01*
X157779815Y-87292539D01*
X157727011Y-87338294D01*
X157675500Y-87349500D01*
X157553854Y-87349500D01*
X157500971Y-87363670D01*
X157500970Y-87363669D01*
X157464716Y-87373384D01*
X157464709Y-87373387D01*
X157384791Y-87419527D01*
X157384786Y-87419531D01*
X155719529Y-89084788D01*
X155711036Y-89099500D01*
X155697830Y-89122375D01*
X155695279Y-89126793D01*
X155695277Y-89126795D01*
X155673388Y-89164706D01*
X155673385Y-89164714D01*
X155673149Y-89165595D01*
X155672747Y-89166253D01*
X155670277Y-89172218D01*
X155669346Y-89171832D01*
X155636780Y-89225253D01*
X155596711Y-89249675D01*
X155519773Y-89278372D01*
X155410313Y-89360313D01*
X155328373Y-89469771D01*
X155328372Y-89469774D01*
X155319397Y-89493836D01*
X155277527Y-89549767D01*
X155212063Y-89574184D01*
X155203217Y-89574500D01*
X155096352Y-89574500D01*
X155029313Y-89554815D01*
X154983558Y-89502011D01*
X154979310Y-89491452D01*
X154977794Y-89487121D01*
X154977793Y-89487118D01*
X154977792Y-89487117D01*
X154897150Y-89377850D01*
X154787882Y-89297207D01*
X154787880Y-89297206D01*
X154659700Y-89252353D01*
X154629270Y-89249500D01*
X154629266Y-89249500D01*
X153970734Y-89249500D01*
X153970730Y-89249500D01*
X153940300Y-89252353D01*
X153940298Y-89252353D01*
X153812119Y-89297206D01*
X153812117Y-89297207D01*
X153702850Y-89377850D01*
X153622207Y-89487117D01*
X153622206Y-89487119D01*
X153577353Y-89615298D01*
X153577353Y-89615300D01*
X153574500Y-89645730D01*
X153574500Y-90154269D01*
X153577353Y-90184699D01*
X153577353Y-90184701D01*
X153622206Y-90312880D01*
X153622207Y-90312882D01*
X153702850Y-90422150D01*
X153812118Y-90502793D01*
X153854845Y-90517744D01*
X153940299Y-90547646D01*
X153970730Y-90550500D01*
X153970734Y-90550500D01*
X154629270Y-90550500D01*
X154659699Y-90547646D01*
X154659701Y-90547646D01*
X154731145Y-90522646D01*
X154787882Y-90502793D01*
X154897150Y-90422150D01*
X154955296Y-90343365D01*
X154968210Y-90325867D01*
X155023857Y-90283616D01*
X155067980Y-90275500D01*
X155203217Y-90275500D01*
X155270256Y-90295185D01*
X155316011Y-90347989D01*
X155319389Y-90356142D01*
X155328372Y-90380226D01*
X155328373Y-90380228D01*
X155341040Y-90397149D01*
X155410313Y-90489687D01*
X155487738Y-90547646D01*
X155511586Y-90565499D01*
X155519774Y-90571628D01*
X155647886Y-90619412D01*
X155704515Y-90625500D01*
X156295484Y-90625499D01*
X156352114Y-90619412D01*
X156480226Y-90571628D01*
X156589687Y-90489687D01*
X156671628Y-90380226D01*
X156719412Y-90252114D01*
X156721687Y-90230944D01*
X156725499Y-90195501D01*
X156725499Y-90195494D01*
X156725500Y-90195485D01*
X156725499Y-89654516D01*
X156719412Y-89597886D01*
X156710689Y-89574500D01*
X156679714Y-89491454D01*
X156671628Y-89469774D01*
X156589687Y-89360313D01*
X156589685Y-89360311D01*
X156588011Y-89358075D01*
X156563594Y-89292610D01*
X156578446Y-89224337D01*
X156599593Y-89196087D01*
X157605847Y-88189833D01*
X157667169Y-88156350D01*
X157736861Y-88161334D01*
X157792794Y-88203206D01*
X157807893Y-88237063D01*
X157809360Y-88236456D01*
X157814033Y-88247739D01*
X157831518Y-88273907D01*
X157869399Y-88330601D01*
X157926189Y-88368546D01*
X157952260Y-88385966D01*
X157952264Y-88385967D01*
X158025321Y-88400499D01*
X158025324Y-88400500D01*
X158025326Y-88400500D01*
X159574676Y-88400500D01*
X159574677Y-88400499D01*
X159647740Y-88385966D01*
X159730601Y-88330601D01*
X159785966Y-88247740D01*
X159800500Y-88174674D01*
X159800500Y-87225326D01*
X159800500Y-87225323D01*
X159800499Y-87225321D01*
X159785967Y-87152264D01*
X159785966Y-87152260D01*
X159785533Y-87151612D01*
X159730601Y-87069399D01*
X159706209Y-87053101D01*
X159661405Y-86999491D01*
X159652698Y-86930166D01*
X159682852Y-86867138D01*
X159706210Y-86846898D01*
X159730601Y-86830601D01*
X159768550Y-86773804D01*
X159822161Y-86729000D01*
X159891485Y-86720291D01*
X159954513Y-86750445D01*
X159959333Y-86755014D01*
X160713181Y-87508862D01*
X160746666Y-87570185D01*
X160749500Y-87596543D01*
X160749500Y-89143892D01*
X160729815Y-89210931D01*
X160677011Y-89256686D01*
X160668834Y-89260073D01*
X160619774Y-89278371D01*
X160510313Y-89360313D01*
X160428373Y-89469771D01*
X160428372Y-89469774D01*
X160419397Y-89493836D01*
X160377527Y-89549767D01*
X160312063Y-89574184D01*
X160303217Y-89574500D01*
X160205099Y-89574500D01*
X160138060Y-89554815D01*
X160092305Y-89502011D01*
X160088065Y-89491474D01*
X160077793Y-89462118D01*
X159997150Y-89352850D01*
X159887882Y-89272207D01*
X159887880Y-89272206D01*
X159759700Y-89227353D01*
X159729270Y-89224500D01*
X159729266Y-89224500D01*
X159070734Y-89224500D01*
X159070730Y-89224500D01*
X159040300Y-89227353D01*
X159040298Y-89227353D01*
X158912119Y-89272206D01*
X158912117Y-89272207D01*
X158802850Y-89352850D01*
X158722207Y-89462117D01*
X158722206Y-89462119D01*
X158677353Y-89590298D01*
X158677353Y-89590300D01*
X158674500Y-89620730D01*
X158674500Y-90129269D01*
X158677353Y-90159699D01*
X158677353Y-90159701D01*
X158717874Y-90275500D01*
X158722207Y-90287882D01*
X158802850Y-90397150D01*
X158912118Y-90477793D01*
X158946109Y-90489687D01*
X159040299Y-90522646D01*
X159070730Y-90525500D01*
X159070734Y-90525500D01*
X159729270Y-90525500D01*
X159759699Y-90522646D01*
X159759701Y-90522646D01*
X159823790Y-90500219D01*
X159887882Y-90477793D01*
X159997150Y-90397150D01*
X160049759Y-90325867D01*
X160105406Y-90283616D01*
X160149529Y-90275500D01*
X160303217Y-90275500D01*
X160370256Y-90295185D01*
X160416011Y-90347989D01*
X160419389Y-90356142D01*
X160428372Y-90380226D01*
X160428373Y-90380228D01*
X160441040Y-90397149D01*
X160510313Y-90489687D01*
X160587738Y-90547646D01*
X160611586Y-90565499D01*
X160619774Y-90571628D01*
X160747886Y-90619412D01*
X160804515Y-90625500D01*
X161395484Y-90625499D01*
X161452114Y-90619412D01*
X161580226Y-90571628D01*
X161689687Y-90489687D01*
X161771628Y-90380226D01*
X161819412Y-90252114D01*
X161821687Y-90230944D01*
X161825499Y-90195501D01*
X161825499Y-90195494D01*
X161825500Y-90195485D01*
X161825499Y-89654516D01*
X161819412Y-89597886D01*
X161810689Y-89574500D01*
X161779714Y-89491454D01*
X161771628Y-89469774D01*
X161689687Y-89360313D01*
X161599246Y-89292610D01*
X161580225Y-89278371D01*
X161580226Y-89278371D01*
X161531166Y-89260073D01*
X161475232Y-89218202D01*
X161450816Y-89152737D01*
X161450500Y-89143892D01*
X161450500Y-87745544D01*
X161470185Y-87678505D01*
X161522989Y-87632750D01*
X161592147Y-87622806D01*
X161655703Y-87651831D01*
X161662181Y-87657863D01*
X163638181Y-89633863D01*
X163671666Y-89695186D01*
X163674500Y-89721544D01*
X163674500Y-90154269D01*
X163677353Y-90184699D01*
X163677353Y-90184701D01*
X163722206Y-90312880D01*
X163722207Y-90312882D01*
X163802850Y-90422150D01*
X163912118Y-90502793D01*
X163954845Y-90517744D01*
X164040299Y-90547646D01*
X164070730Y-90550500D01*
X164070734Y-90550500D01*
X164729270Y-90550500D01*
X164759699Y-90547646D01*
X164759701Y-90547646D01*
X164831145Y-90522646D01*
X164887882Y-90502793D01*
X164997150Y-90422150D01*
X165055296Y-90343365D01*
X165068210Y-90325867D01*
X165123857Y-90283616D01*
X165167980Y-90275500D01*
X165203217Y-90275500D01*
X165270256Y-90295185D01*
X165316011Y-90347989D01*
X165319389Y-90356142D01*
X165328372Y-90380226D01*
X165328373Y-90380228D01*
X165341040Y-90397149D01*
X165410313Y-90489687D01*
X165487738Y-90547646D01*
X165511586Y-90565499D01*
X165519774Y-90571628D01*
X165647886Y-90619412D01*
X165704515Y-90625500D01*
X166295484Y-90625499D01*
X166352114Y-90619412D01*
X166480226Y-90571628D01*
X166589687Y-90489687D01*
X166671628Y-90380226D01*
X166719412Y-90252114D01*
X166721687Y-90230944D01*
X166725499Y-90195501D01*
X166725499Y-90195494D01*
X166725500Y-90195485D01*
X166725499Y-89654516D01*
X166719412Y-89597886D01*
X166710689Y-89574500D01*
X166679714Y-89491454D01*
X166671628Y-89469774D01*
X166589687Y-89360313D01*
X166523911Y-89311074D01*
X166480228Y-89278373D01*
X166480226Y-89278372D01*
X166352114Y-89230588D01*
X166352112Y-89230587D01*
X166352110Y-89230587D01*
X166295493Y-89224500D01*
X165704518Y-89224500D01*
X165704509Y-89224501D01*
X165647885Y-89230587D01*
X165519773Y-89278372D01*
X165410313Y-89360313D01*
X165328373Y-89469771D01*
X165328372Y-89469774D01*
X165319397Y-89493836D01*
X165277527Y-89549767D01*
X165212063Y-89574184D01*
X165203217Y-89574500D01*
X165196352Y-89574500D01*
X165129313Y-89554815D01*
X165083558Y-89502011D01*
X165079310Y-89491452D01*
X165077794Y-89487121D01*
X165077793Y-89487118D01*
X165077792Y-89487117D01*
X164997150Y-89377850D01*
X164887882Y-89297207D01*
X164887880Y-89297206D01*
X164759700Y-89252353D01*
X164729270Y-89249500D01*
X164729266Y-89249500D01*
X164296544Y-89249500D01*
X164229505Y-89229815D01*
X164208863Y-89213181D01*
X159836819Y-84841137D01*
X159803334Y-84779814D01*
X159800500Y-84753456D01*
X159800500Y-84225323D01*
X159800499Y-84225321D01*
X159785967Y-84152264D01*
X159785966Y-84152260D01*
X159730601Y-84069399D01*
X159706209Y-84053101D01*
X159661405Y-83999491D01*
X159652698Y-83930166D01*
X159682852Y-83867138D01*
X159706210Y-83846898D01*
X159730601Y-83830601D01*
X159785966Y-83747740D01*
X159800500Y-83674674D01*
X159800500Y-83674500D01*
X159800526Y-83674410D01*
X159801097Y-83668614D01*
X159802196Y-83668722D01*
X159820185Y-83607461D01*
X159872989Y-83561706D01*
X159924500Y-83550500D01*
X160751129Y-83550500D01*
X160970629Y-83550500D01*
X161237769Y-83550500D01*
X161304808Y-83570185D01*
X161325450Y-83586819D01*
X161336201Y-83597570D01*
X161369686Y-83658893D01*
X161365557Y-83726220D01*
X161343790Y-83788401D01*
X161330127Y-83909539D01*
X161343762Y-84030674D01*
X161343763Y-84030678D01*
X161384013Y-84145745D01*
X161448859Y-84248969D01*
X161448862Y-84248973D01*
X161453210Y-84253321D01*
X161453267Y-84253387D01*
X161487925Y-84288044D01*
X161487933Y-84288053D01*
X161538240Y-84338368D01*
X161538294Y-84338414D01*
X161600540Y-84400659D01*
X161600556Y-84400678D01*
X161639579Y-84439699D01*
X161646868Y-84446988D01*
X161689968Y-84490088D01*
X161793190Y-84554945D01*
X161908255Y-84595207D01*
X161948635Y-84599756D01*
X162029391Y-84608856D01*
X162029395Y-84608856D01*
X162029399Y-84608856D01*
X162150529Y-84595208D01*
X162150532Y-84595207D01*
X162150535Y-84595207D01*
X162150536Y-84595206D01*
X162150539Y-84595206D01*
X162212781Y-84573426D01*
X162282560Y-84569863D01*
X162341418Y-84602786D01*
X163119763Y-85381131D01*
X164844102Y-87105470D01*
X164924026Y-87151614D01*
X165013170Y-87175500D01*
X165105458Y-87175500D01*
X165351427Y-87175500D01*
X165418466Y-87195185D01*
X165464221Y-87247989D01*
X165474165Y-87317147D01*
X165445140Y-87380703D01*
X165425743Y-87398761D01*
X165410313Y-87410313D01*
X165410312Y-87410314D01*
X165328373Y-87519771D01*
X165304480Y-87583830D01*
X165289943Y-87622806D01*
X165280587Y-87647889D01*
X165274500Y-87704498D01*
X165274500Y-88295481D01*
X165274501Y-88295490D01*
X165280587Y-88352114D01*
X165326493Y-88475189D01*
X165328372Y-88480226D01*
X165410313Y-88589687D01*
X165519774Y-88671628D01*
X165647886Y-88719412D01*
X165704515Y-88725500D01*
X166245484Y-88725499D01*
X166262648Y-88723654D01*
X166331407Y-88736061D01*
X166363582Y-88759263D01*
X167113181Y-89508862D01*
X167146666Y-89570185D01*
X167149500Y-89596542D01*
X167149500Y-89681517D01*
X167152937Y-89703216D01*
X167164354Y-89775304D01*
X167221950Y-89888342D01*
X167221952Y-89888344D01*
X167221954Y-89888347D01*
X167311652Y-89978045D01*
X167311654Y-89978046D01*
X167311658Y-89978050D01*
X167417888Y-90032177D01*
X167424698Y-90035647D01*
X167518475Y-90050499D01*
X167518481Y-90050500D01*
X168575500Y-90050499D01*
X168642539Y-90070183D01*
X168688294Y-90122987D01*
X168699500Y-90174499D01*
X168699500Y-90725500D01*
X168679815Y-90792539D01*
X168627011Y-90838294D01*
X168575500Y-90849500D01*
X167518482Y-90849500D01*
X167437519Y-90862323D01*
X167424696Y-90864354D01*
X167311658Y-90921950D01*
X167311657Y-90921951D01*
X167311652Y-90921954D01*
X167221954Y-91011652D01*
X167221951Y-91011657D01*
X167221950Y-91011658D01*
X167203866Y-91047149D01*
X167164352Y-91124698D01*
X167149500Y-91218475D01*
X167149500Y-91581517D01*
X167153434Y-91606354D01*
X167164354Y-91675304D01*
X167221950Y-91788342D01*
X167221952Y-91788344D01*
X167221954Y-91788347D01*
X167311652Y-91878045D01*
X167311654Y-91878046D01*
X167311658Y-91878050D01*
X167417270Y-91931862D01*
X167424698Y-91935647D01*
X167518475Y-91950499D01*
X167518481Y-91950500D01*
X168065955Y-91950499D01*
X168132994Y-91970183D01*
X168153636Y-91986818D01*
X169813181Y-93646363D01*
X169846666Y-93707686D01*
X169849500Y-93734044D01*
X169849500Y-94600626D01*
X169829815Y-94667665D01*
X169777011Y-94713420D01*
X169757594Y-94720401D01*
X169736342Y-94726095D01*
X169736335Y-94726098D01*
X169522171Y-94825964D01*
X169522169Y-94825965D01*
X169328597Y-94961505D01*
X169222181Y-95067922D01*
X169160858Y-95101407D01*
X169091166Y-95096423D01*
X169035233Y-95054551D01*
X169010816Y-94989087D01*
X169010500Y-94980241D01*
X169010500Y-94875323D01*
X169010499Y-94875321D01*
X168995967Y-94802264D01*
X168995966Y-94802260D01*
X168992945Y-94797739D01*
X168940601Y-94719399D01*
X168873404Y-94674500D01*
X168857739Y-94664033D01*
X168857735Y-94664032D01*
X168784677Y-94649500D01*
X168784674Y-94649500D01*
X166856544Y-94649500D01*
X166789505Y-94629815D01*
X166768863Y-94613181D01*
X164786819Y-92631137D01*
X164753334Y-92569814D01*
X164750500Y-92543456D01*
X164750500Y-92288847D01*
X164770185Y-92221808D01*
X164822989Y-92176053D01*
X164833528Y-92171812D01*
X164887882Y-92152793D01*
X164997150Y-92072150D01*
X165077793Y-91962882D01*
X165107478Y-91878048D01*
X165122646Y-91834701D01*
X165122646Y-91834699D01*
X165125500Y-91804269D01*
X165125500Y-91295730D01*
X165122646Y-91265300D01*
X165122646Y-91265298D01*
X165082675Y-91151071D01*
X165077793Y-91137118D01*
X164997150Y-91027850D01*
X164887882Y-90947207D01*
X164887880Y-90947206D01*
X164759700Y-90902353D01*
X164729270Y-90899500D01*
X164729266Y-90899500D01*
X164070734Y-90899500D01*
X164070730Y-90899500D01*
X164040300Y-90902353D01*
X164040298Y-90902353D01*
X163912119Y-90947206D01*
X163912117Y-90947207D01*
X163822802Y-91013125D01*
X163802850Y-91027850D01*
X163731374Y-91124698D01*
X163716689Y-91144595D01*
X163714714Y-91143137D01*
X163675420Y-91183515D01*
X163614520Y-91199500D01*
X163585480Y-91199500D01*
X163518441Y-91179815D01*
X163484968Y-91143371D01*
X163483311Y-91144595D01*
X163470910Y-91127792D01*
X163397150Y-91027850D01*
X163287882Y-90947207D01*
X163287880Y-90947206D01*
X163159700Y-90902353D01*
X163129270Y-90899500D01*
X163129266Y-90899500D01*
X162470734Y-90899500D01*
X162470730Y-90899500D01*
X162440300Y-90902353D01*
X162440298Y-90902353D01*
X162312119Y-90947206D01*
X162312117Y-90947207D01*
X162202850Y-91027850D01*
X162122207Y-91137117D01*
X162122206Y-91137119D01*
X162077353Y-91265298D01*
X162077353Y-91265300D01*
X162074500Y-91295730D01*
X162074500Y-91804269D01*
X162077353Y-91834699D01*
X162077353Y-91834701D01*
X162121505Y-91960877D01*
X162122207Y-91962882D01*
X162202850Y-92072150D01*
X162312118Y-92152793D01*
X162346452Y-92164807D01*
X162440299Y-92197646D01*
X162470730Y-92200500D01*
X162470734Y-92200500D01*
X163129270Y-92200500D01*
X163159699Y-92197646D01*
X163159701Y-92197646D01*
X163231145Y-92172646D01*
X163287882Y-92152793D01*
X163397150Y-92072150D01*
X163477793Y-91962882D01*
X163477794Y-91962880D01*
X163483311Y-91955405D01*
X163485285Y-91956862D01*
X163524580Y-91916485D01*
X163585480Y-91900500D01*
X163614520Y-91900500D01*
X163681559Y-91920185D01*
X163715031Y-91956628D01*
X163716689Y-91955405D01*
X163722206Y-91962880D01*
X163722207Y-91962882D01*
X163802850Y-92072150D01*
X163912118Y-92152793D01*
X163966456Y-92171806D01*
X164023231Y-92212527D01*
X164048978Y-92277480D01*
X164049500Y-92288847D01*
X164049500Y-92786145D01*
X164067704Y-92854085D01*
X164073385Y-92875286D01*
X164073387Y-92875291D01*
X164119527Y-92955208D01*
X164119531Y-92955213D01*
X166273181Y-95108863D01*
X166306666Y-95170186D01*
X166309500Y-95196544D01*
X166309500Y-96925500D01*
X166289815Y-96992539D01*
X166237011Y-97038294D01*
X166185500Y-97049500D01*
X165136544Y-97049500D01*
X165069505Y-97029815D01*
X165048863Y-97013181D01*
X164775263Y-96739581D01*
X164741778Y-96678258D01*
X164746762Y-96608566D01*
X164750546Y-96599531D01*
X164813903Y-96463663D01*
X164875063Y-96235408D01*
X164895659Y-96000000D01*
X164875063Y-95764592D01*
X164813903Y-95536337D01*
X164714035Y-95322171D01*
X164701614Y-95304431D01*
X164578494Y-95128597D01*
X164411402Y-94961506D01*
X164411395Y-94961501D01*
X164217834Y-94825967D01*
X164217830Y-94825965D01*
X164167003Y-94802264D01*
X164003663Y-94726097D01*
X164003659Y-94726096D01*
X164003655Y-94726094D01*
X163775413Y-94664938D01*
X163775403Y-94664936D01*
X163540001Y-94644341D01*
X163539999Y-94644341D01*
X163304596Y-94664936D01*
X163304586Y-94664938D01*
X163076344Y-94726094D01*
X163076335Y-94726098D01*
X162862171Y-94825964D01*
X162862169Y-94825965D01*
X162668597Y-94961505D01*
X162562181Y-95067922D01*
X162500858Y-95101407D01*
X162431166Y-95096423D01*
X162375233Y-95054551D01*
X162350816Y-94989087D01*
X162350500Y-94980241D01*
X162350500Y-94875323D01*
X162350499Y-94875321D01*
X162335967Y-94802264D01*
X162335966Y-94802260D01*
X162332945Y-94797739D01*
X162280601Y-94719399D01*
X162213404Y-94674500D01*
X162197739Y-94664033D01*
X162197735Y-94664032D01*
X162124677Y-94649500D01*
X162124674Y-94649500D01*
X160196544Y-94649500D01*
X160129505Y-94629815D01*
X160108863Y-94613181D01*
X159786819Y-94291137D01*
X159753334Y-94229814D01*
X159750500Y-94203456D01*
X159750500Y-92263847D01*
X159770185Y-92196808D01*
X159822989Y-92151053D01*
X159833528Y-92146812D01*
X159887882Y-92127793D01*
X159997150Y-92047150D01*
X160077793Y-91937882D01*
X160100219Y-91873790D01*
X160122646Y-91809701D01*
X160122646Y-91809699D01*
X160125500Y-91779269D01*
X160125500Y-91270730D01*
X160122646Y-91240300D01*
X160122646Y-91240298D01*
X160083278Y-91127793D01*
X160077793Y-91112118D01*
X159997150Y-91002850D01*
X159887882Y-90922207D01*
X159887880Y-90922206D01*
X159759700Y-90877353D01*
X159729270Y-90874500D01*
X159729266Y-90874500D01*
X159070734Y-90874500D01*
X159070730Y-90874500D01*
X159040300Y-90877353D01*
X159040298Y-90877353D01*
X158912119Y-90922206D01*
X158912117Y-90922207D01*
X158831872Y-90981431D01*
X158802850Y-91002850D01*
X158750793Y-91073386D01*
X158716689Y-91119595D01*
X158714714Y-91118137D01*
X158675420Y-91158515D01*
X158614520Y-91174500D01*
X158485480Y-91174500D01*
X158418441Y-91154815D01*
X158384968Y-91118371D01*
X158383311Y-91119595D01*
X158361238Y-91089687D01*
X158297150Y-91002850D01*
X158187882Y-90922207D01*
X158187880Y-90922206D01*
X158059700Y-90877353D01*
X158029270Y-90874500D01*
X158029266Y-90874500D01*
X157370734Y-90874500D01*
X157370730Y-90874500D01*
X157340300Y-90877353D01*
X157340298Y-90877353D01*
X157212119Y-90922206D01*
X157212117Y-90922207D01*
X157102850Y-91002850D01*
X157022207Y-91112117D01*
X157022206Y-91112119D01*
X156977353Y-91240298D01*
X156977353Y-91240300D01*
X156974500Y-91270730D01*
X156974500Y-91779269D01*
X156977353Y-91809699D01*
X156977353Y-91809701D01*
X157021664Y-91936330D01*
X157022207Y-91937882D01*
X157102850Y-92047150D01*
X157212118Y-92127793D01*
X157254845Y-92142744D01*
X157340299Y-92172646D01*
X157370730Y-92175500D01*
X157370734Y-92175500D01*
X158029270Y-92175500D01*
X158059699Y-92172646D01*
X158059701Y-92172646D01*
X158123790Y-92150219D01*
X158187882Y-92127793D01*
X158297150Y-92047150D01*
X158377793Y-91937882D01*
X158377794Y-91937880D01*
X158383311Y-91930405D01*
X158385285Y-91931862D01*
X158424580Y-91891485D01*
X158485480Y-91875500D01*
X158614520Y-91875500D01*
X158681559Y-91895185D01*
X158715031Y-91931628D01*
X158716689Y-91930405D01*
X158722206Y-91937880D01*
X158722207Y-91937882D01*
X158802850Y-92047150D01*
X158912118Y-92127793D01*
X158966456Y-92146806D01*
X159023231Y-92187527D01*
X159048978Y-92252480D01*
X159049500Y-92263847D01*
X159049500Y-94446145D01*
X159068623Y-94517515D01*
X159073385Y-94535286D01*
X159073387Y-94535291D01*
X159119527Y-94615208D01*
X159119531Y-94615213D01*
X159613181Y-95108863D01*
X159646666Y-95170186D01*
X159649500Y-95196544D01*
X159649500Y-96925500D01*
X159629815Y-96992539D01*
X159577011Y-97038294D01*
X159525500Y-97049500D01*
X158456544Y-97049500D01*
X158389505Y-97029815D01*
X158368863Y-97013181D01*
X158095263Y-96739581D01*
X158061778Y-96678258D01*
X158066762Y-96608566D01*
X158070546Y-96599531D01*
X158133903Y-96463663D01*
X158195063Y-96235408D01*
X158215659Y-96000000D01*
X158195063Y-95764592D01*
X158133903Y-95536337D01*
X158034035Y-95322171D01*
X158021614Y-95304431D01*
X157898494Y-95128597D01*
X157731402Y-94961506D01*
X157731395Y-94961501D01*
X157537834Y-94825967D01*
X157537830Y-94825965D01*
X157487003Y-94802264D01*
X157323663Y-94726097D01*
X157323659Y-94726096D01*
X157323655Y-94726094D01*
X157095413Y-94664938D01*
X157095403Y-94664936D01*
X156860001Y-94644341D01*
X156859999Y-94644341D01*
X156624596Y-94664936D01*
X156624586Y-94664938D01*
X156396344Y-94726094D01*
X156396335Y-94726098D01*
X156182171Y-94825964D01*
X156182169Y-94825965D01*
X155988597Y-94961505D01*
X155882181Y-95067922D01*
X155820858Y-95101407D01*
X155751166Y-95096423D01*
X155695233Y-95054551D01*
X155670816Y-94989087D01*
X155670500Y-94980241D01*
X155670500Y-94875323D01*
X155670499Y-94875321D01*
X155655967Y-94802264D01*
X155655966Y-94802260D01*
X155652945Y-94797739D01*
X155600601Y-94719399D01*
X155533404Y-94674500D01*
X155517739Y-94664033D01*
X155517735Y-94664032D01*
X155444677Y-94649500D01*
X155444674Y-94649500D01*
X154794500Y-94649500D01*
X154727461Y-94629815D01*
X154681706Y-94577011D01*
X154670500Y-94525500D01*
X154670500Y-92281849D01*
X154690185Y-92214810D01*
X154742989Y-92169055D01*
X154753547Y-92164807D01*
X154787879Y-92152794D01*
X154787878Y-92152794D01*
X154787882Y-92152793D01*
X154897150Y-92072150D01*
X154977793Y-91962882D01*
X155007478Y-91878048D01*
X155022646Y-91834701D01*
X155022646Y-91834699D01*
X155025500Y-91804269D01*
X155025500Y-91295730D01*
X155022646Y-91265300D01*
X155022646Y-91265298D01*
X154982675Y-91151071D01*
X154977793Y-91137118D01*
X154897150Y-91027850D01*
X154787882Y-90947207D01*
X154787880Y-90947206D01*
X154659700Y-90902353D01*
X154629270Y-90899500D01*
X154629266Y-90899500D01*
X153970734Y-90899500D01*
X153970730Y-90899500D01*
X153940300Y-90902353D01*
X153940298Y-90902353D01*
X153812119Y-90947206D01*
X153812117Y-90947207D01*
X153722802Y-91013125D01*
X153702850Y-91027850D01*
X153631374Y-91124698D01*
X153616689Y-91144595D01*
X153614714Y-91143137D01*
X153575420Y-91183515D01*
X153514520Y-91199500D01*
X153385480Y-91199500D01*
X153318441Y-91179815D01*
X153284968Y-91143371D01*
X153283311Y-91144595D01*
X153270910Y-91127792D01*
X153197150Y-91027850D01*
X153087882Y-90947207D01*
X153087880Y-90947206D01*
X152959700Y-90902353D01*
X152929270Y-90899500D01*
X152929266Y-90899500D01*
X152270734Y-90899500D01*
X152270730Y-90899500D01*
X152240300Y-90902353D01*
X152240298Y-90902353D01*
X152112119Y-90947206D01*
X152112117Y-90947207D01*
X152002850Y-91027850D01*
X151922207Y-91137117D01*
X151922206Y-91137119D01*
X151877353Y-91265298D01*
X151877353Y-91265300D01*
X151874500Y-91295730D01*
X151874500Y-91804269D01*
X151877353Y-91834699D01*
X151877353Y-91834701D01*
X151921505Y-91960877D01*
X151922207Y-91962882D01*
X152002850Y-92072150D01*
X152112118Y-92152793D01*
X152146452Y-92164807D01*
X152240299Y-92197646D01*
X152270730Y-92200500D01*
X152270734Y-92200500D01*
X152929270Y-92200500D01*
X152959699Y-92197646D01*
X152959701Y-92197646D01*
X153031145Y-92172646D01*
X153087882Y-92152793D01*
X153197150Y-92072150D01*
X153277793Y-91962882D01*
X153277794Y-91962880D01*
X153283311Y-91955405D01*
X153285285Y-91956862D01*
X153324580Y-91916485D01*
X153385480Y-91900500D01*
X153514520Y-91900500D01*
X153581559Y-91920185D01*
X153615031Y-91956628D01*
X153616689Y-91955405D01*
X153622206Y-91962880D01*
X153622207Y-91962882D01*
X153702850Y-92072150D01*
X153812118Y-92152793D01*
X153886457Y-92178805D01*
X153943230Y-92219525D01*
X153968978Y-92284477D01*
X153969500Y-92295845D01*
X153969500Y-94525500D01*
X153949815Y-94592539D01*
X153897011Y-94638294D01*
X153845500Y-94649500D01*
X153195323Y-94649500D01*
X153122264Y-94664032D01*
X153122260Y-94664033D01*
X153039399Y-94719399D01*
X152984033Y-94802260D01*
X152984032Y-94802264D01*
X152969500Y-94875321D01*
X152969500Y-96925500D01*
X152949815Y-96992539D01*
X152897011Y-97038294D01*
X152845500Y-97049500D01*
X146346544Y-97049500D01*
X146279505Y-97029815D01*
X146258863Y-97013181D01*
X146061819Y-96816137D01*
X146028334Y-96754814D01*
X146025500Y-96728456D01*
X146025500Y-96504354D01*
X146045185Y-96437315D01*
X146097989Y-96391560D01*
X146133313Y-96381415D01*
X146166161Y-96377091D01*
X146300077Y-96321622D01*
X146415073Y-96233382D01*
X146503313Y-96118386D01*
X146558782Y-95984470D01*
X146577702Y-95840761D01*
X146558782Y-95697052D01*
X146503313Y-95563136D01*
X146415073Y-95448140D01*
X146300077Y-95359900D01*
X146300076Y-95359899D01*
X146300074Y-95359898D01*
X146166164Y-95304432D01*
X146166162Y-95304431D01*
X146166161Y-95304431D01*
X146094306Y-95294971D01*
X146022453Y-95285511D01*
X146022451Y-95285511D01*
X145878743Y-95304431D01*
X145878739Y-95304432D01*
X145744829Y-95359898D01*
X145629831Y-95448140D01*
X145541589Y-95563138D01*
X145486123Y-95697048D01*
X145486122Y-95697052D01*
X145477230Y-95764596D01*
X145473663Y-95791686D01*
X145445396Y-95855582D01*
X145387072Y-95894053D01*
X145350724Y-95899500D01*
X144970730Y-95899500D01*
X144940300Y-95902353D01*
X144940298Y-95902353D01*
X144812119Y-95947206D01*
X144812117Y-95947207D01*
X144702850Y-96027850D01*
X144624770Y-96133645D01*
X144569122Y-96175895D01*
X144499466Y-96181354D01*
X144437917Y-96148286D01*
X144425230Y-96133645D01*
X144382316Y-96075499D01*
X144347150Y-96027850D01*
X144237882Y-95947207D01*
X144237880Y-95947206D01*
X144235633Y-95946420D01*
X144233508Y-95944896D01*
X144229669Y-95942867D01*
X144229946Y-95942341D01*
X144178860Y-95905695D01*
X144153116Y-95840741D01*
X144166577Y-95772180D01*
X144202280Y-95730118D01*
X144289687Y-95664687D01*
X144371628Y-95555226D01*
X144419412Y-95427114D01*
X144421687Y-95405944D01*
X144425499Y-95370501D01*
X144425499Y-95370490D01*
X144425500Y-95370485D01*
X144425499Y-94779516D01*
X144419412Y-94722886D01*
X144418111Y-94719399D01*
X144387860Y-94638294D01*
X144371628Y-94594774D01*
X144289687Y-94485313D01*
X144289685Y-94485312D01*
X144289685Y-94485311D01*
X144223401Y-94435692D01*
X144181529Y-94379759D01*
X144176545Y-94310067D01*
X144210030Y-94248744D01*
X144230594Y-94233567D01*
X144230405Y-94233311D01*
X144237883Y-94227792D01*
X144347150Y-94147150D01*
X144425230Y-94041355D01*
X144480877Y-93999104D01*
X144550533Y-93993645D01*
X144612083Y-94026712D01*
X144624770Y-94041355D01*
X144702848Y-94147148D01*
X144702849Y-94147148D01*
X144702850Y-94147150D01*
X144812118Y-94227793D01*
X144852728Y-94242003D01*
X144940299Y-94272646D01*
X144970730Y-94275500D01*
X144970734Y-94275500D01*
X145629270Y-94275500D01*
X145659699Y-94272646D01*
X145659701Y-94272646D01*
X145728007Y-94248744D01*
X145787882Y-94227793D01*
X145787886Y-94227789D01*
X145796098Y-94223451D01*
X145797168Y-94225475D01*
X145850612Y-94205944D01*
X145918786Y-94221247D01*
X145946321Y-94242003D01*
X146163181Y-94458863D01*
X146196666Y-94520186D01*
X146199500Y-94546544D01*
X146199500Y-94724678D01*
X146214032Y-94797735D01*
X146214033Y-94797739D01*
X146214034Y-94797740D01*
X146269399Y-94880601D01*
X146330676Y-94921544D01*
X146352260Y-94935966D01*
X146352264Y-94935967D01*
X146425321Y-94950499D01*
X146425324Y-94950500D01*
X146425326Y-94950500D01*
X147374676Y-94950500D01*
X147374677Y-94950499D01*
X147447740Y-94935966D01*
X147530601Y-94880601D01*
X147585966Y-94797740D01*
X147600500Y-94724674D01*
X147600500Y-94674500D01*
X147620185Y-94607461D01*
X147672989Y-94561706D01*
X147724500Y-94550500D01*
X150175500Y-94550500D01*
X150242539Y-94570185D01*
X150288294Y-94622989D01*
X150299500Y-94674500D01*
X150299500Y-94724678D01*
X150314032Y-94797735D01*
X150314033Y-94797739D01*
X150314034Y-94797740D01*
X150369399Y-94880601D01*
X150430676Y-94921544D01*
X150452260Y-94935966D01*
X150452264Y-94935967D01*
X150525321Y-94950499D01*
X150525324Y-94950500D01*
X150525326Y-94950500D01*
X151474676Y-94950500D01*
X151474677Y-94950499D01*
X151547740Y-94935966D01*
X151630601Y-94880601D01*
X151685966Y-94797740D01*
X151700500Y-94724674D01*
X151700500Y-93675326D01*
X151700500Y-93675323D01*
X151700499Y-93675321D01*
X151685967Y-93602264D01*
X151685966Y-93602260D01*
X151682636Y-93597276D01*
X151630601Y-93519399D01*
X151547740Y-93464034D01*
X151547739Y-93464033D01*
X151547735Y-93464032D01*
X151474677Y-93449500D01*
X151474674Y-93449500D01*
X150525326Y-93449500D01*
X150525323Y-93449500D01*
X150452264Y-93464032D01*
X150452260Y-93464033D01*
X150369399Y-93519399D01*
X150314033Y-93602260D01*
X150314032Y-93602264D01*
X150299500Y-93675321D01*
X150299500Y-93725500D01*
X150279815Y-93792539D01*
X150227011Y-93838294D01*
X150175500Y-93849500D01*
X147724500Y-93849500D01*
X147657461Y-93829815D01*
X147611706Y-93777011D01*
X147600500Y-93725500D01*
X147600500Y-93675323D01*
X147600499Y-93675321D01*
X147585967Y-93602264D01*
X147585966Y-93602260D01*
X147582636Y-93597276D01*
X147530601Y-93519399D01*
X147447740Y-93464034D01*
X147447739Y-93464033D01*
X147447735Y-93464032D01*
X147374677Y-93449500D01*
X147374674Y-93449500D01*
X146425326Y-93449500D01*
X146425323Y-93449500D01*
X146352264Y-93464032D01*
X146352255Y-93464036D01*
X146321447Y-93484620D01*
X146254769Y-93505496D01*
X146187390Y-93487009D01*
X146164879Y-93469197D01*
X146035480Y-93339798D01*
X146006119Y-93293071D01*
X146002982Y-93284107D01*
X145977793Y-93212118D01*
X145897150Y-93102850D01*
X145787882Y-93022207D01*
X145787880Y-93022206D01*
X145659700Y-92977353D01*
X145629270Y-92974500D01*
X145629266Y-92974500D01*
X144970734Y-92974500D01*
X144970730Y-92974500D01*
X144940300Y-92977353D01*
X144940298Y-92977353D01*
X144812119Y-93022206D01*
X144812117Y-93022207D01*
X144702850Y-93102850D01*
X144624770Y-93208645D01*
X144569122Y-93250895D01*
X144499466Y-93256354D01*
X144437917Y-93223286D01*
X144425230Y-93208645D01*
X144413532Y-93192795D01*
X144347150Y-93102850D01*
X144237882Y-93022207D01*
X144237880Y-93022206D01*
X144109700Y-92977353D01*
X144079270Y-92974500D01*
X144079266Y-92974500D01*
X143449500Y-92974500D01*
X143382461Y-92954815D01*
X143336706Y-92902011D01*
X143325500Y-92850500D01*
X143325500Y-92749500D01*
X143345185Y-92682461D01*
X143397989Y-92636706D01*
X143449500Y-92625500D01*
X144079270Y-92625500D01*
X144109699Y-92622646D01*
X144109701Y-92622646D01*
X144189227Y-92594818D01*
X144237882Y-92577793D01*
X144347150Y-92497150D01*
X144425230Y-92391355D01*
X144480877Y-92349104D01*
X144550533Y-92343645D01*
X144612083Y-92376712D01*
X144624770Y-92391355D01*
X144702848Y-92497148D01*
X144702849Y-92497148D01*
X144702850Y-92497150D01*
X144812118Y-92577793D01*
X144822781Y-92581524D01*
X144940299Y-92622646D01*
X144970730Y-92625500D01*
X144970734Y-92625500D01*
X145629270Y-92625500D01*
X145659699Y-92622646D01*
X145659701Y-92622646D01*
X145739227Y-92594818D01*
X145787882Y-92577793D01*
X145897150Y-92497150D01*
X145977793Y-92387882D01*
X146013976Y-92284477D01*
X146022646Y-92259701D01*
X146022646Y-92259699D01*
X146025500Y-92229269D01*
X146025500Y-92073671D01*
X146045185Y-92006632D01*
X146097989Y-91960877D01*
X146165685Y-91950732D01*
X146200000Y-91955250D01*
X146343709Y-91936330D01*
X146477625Y-91880861D01*
X146592621Y-91792621D01*
X146680861Y-91677625D01*
X146736330Y-91543709D01*
X146755250Y-91400000D01*
X146736330Y-91256291D01*
X146681823Y-91124698D01*
X146680862Y-91122377D01*
X146680861Y-91122376D01*
X146680861Y-91122375D01*
X146592621Y-91007379D01*
X146592619Y-91007377D01*
X146592615Y-91007372D01*
X146586871Y-91001628D01*
X146589387Y-90999111D01*
X146557797Y-90955817D01*
X146550500Y-90913908D01*
X146550500Y-79924500D01*
X146570185Y-79857461D01*
X146622989Y-79811706D01*
X146674500Y-79800500D01*
X157675500Y-79800500D01*
X157742539Y-79820185D01*
G37*
%TD.AperFunction*%
%TA.AperFunction,Conductor*%
G36*
X142414445Y-76310379D02*
G01*
X142419278Y-76314960D01*
X145813181Y-79708863D01*
X145846666Y-79770186D01*
X145849500Y-79796544D01*
X145849500Y-90913908D01*
X145829815Y-90980947D01*
X145811909Y-91000416D01*
X145813125Y-91001632D01*
X145801632Y-91013125D01*
X145799116Y-91010609D01*
X145755817Y-91042203D01*
X145713908Y-91049500D01*
X145553856Y-91049500D01*
X145470073Y-91071948D01*
X145470074Y-91071949D01*
X145464712Y-91073385D01*
X145464708Y-91073387D01*
X145384791Y-91119527D01*
X145384786Y-91119531D01*
X145216137Y-91288181D01*
X145154814Y-91321666D01*
X145128456Y-91324500D01*
X144970730Y-91324500D01*
X144940300Y-91327353D01*
X144940298Y-91327353D01*
X144812119Y-91372206D01*
X144812117Y-91372207D01*
X144702850Y-91452850D01*
X144624770Y-91558645D01*
X144569122Y-91600895D01*
X144499466Y-91606354D01*
X144437917Y-91573286D01*
X144425230Y-91558645D01*
X144413532Y-91542795D01*
X144347150Y-91452850D01*
X144237882Y-91372207D01*
X144237880Y-91372206D01*
X144235633Y-91371420D01*
X144233508Y-91369896D01*
X144229669Y-91367867D01*
X144229946Y-91367341D01*
X144178860Y-91330695D01*
X144153116Y-91265741D01*
X144166577Y-91197180D01*
X144202280Y-91155118D01*
X144289687Y-91089687D01*
X144371628Y-90980226D01*
X144419412Y-90852114D01*
X144421687Y-90830944D01*
X144425499Y-90795501D01*
X144425499Y-90795494D01*
X144425500Y-90795485D01*
X144425499Y-90204516D01*
X144420682Y-90159699D01*
X144419412Y-90147885D01*
X144398506Y-90091835D01*
X144371628Y-90019774D01*
X144289687Y-89910313D01*
X144180226Y-89828372D01*
X144180223Y-89828370D01*
X144156165Y-89819397D01*
X144100232Y-89777525D01*
X144075816Y-89712060D01*
X144075500Y-89703216D01*
X144075500Y-78478858D01*
X144075500Y-78478856D01*
X144051614Y-78389712D01*
X144042188Y-78373386D01*
X144028399Y-78349502D01*
X144028397Y-78349500D01*
X144005470Y-78309788D01*
X142615213Y-76919531D01*
X142615208Y-76919527D01*
X142535290Y-76873387D01*
X142535289Y-76873386D01*
X142535288Y-76873386D01*
X142446144Y-76849500D01*
X142446143Y-76849500D01*
X142424500Y-76849500D01*
X142357461Y-76829815D01*
X142311706Y-76777011D01*
X142301766Y-76731320D01*
X142301097Y-76731386D01*
X142300531Y-76725645D01*
X142300500Y-76725500D01*
X142300500Y-76725323D01*
X142300499Y-76725321D01*
X142285967Y-76652264D01*
X142285966Y-76652260D01*
X142251046Y-76599998D01*
X142230601Y-76569399D01*
X142206209Y-76553101D01*
X142161405Y-76499491D01*
X142152698Y-76430166D01*
X142182852Y-76367138D01*
X142206210Y-76346898D01*
X142230601Y-76330601D01*
X142230603Y-76330597D01*
X142239237Y-76321965D01*
X142240768Y-76323496D01*
X142282089Y-76288953D01*
X142351413Y-76280235D01*
X142414445Y-76310379D01*
G37*
%TD.AperFunction*%
%TA.AperFunction,Conductor*%
G36*
X169655552Y-87195185D02*
G01*
X169701307Y-87247989D01*
X169711251Y-87317147D01*
X169687780Y-87373808D01*
X169682620Y-87380703D01*
X169653373Y-87419771D01*
X169605587Y-87547889D01*
X169599500Y-87604498D01*
X169599500Y-88195481D01*
X169599501Y-88195490D01*
X169605587Y-88252114D01*
X169653372Y-88380226D01*
X169735313Y-88489687D01*
X169844774Y-88571628D01*
X169856335Y-88575940D01*
X169912268Y-88617812D01*
X169936684Y-88683276D01*
X169937000Y-88692121D01*
X169937000Y-88825500D01*
X169917315Y-88892539D01*
X169864511Y-88938294D01*
X169813005Y-88949500D01*
X169793483Y-88949500D01*
X169714550Y-88962001D01*
X169699696Y-88964354D01*
X169586658Y-89021950D01*
X169586657Y-89021951D01*
X169586652Y-89021954D01*
X169541507Y-89067099D01*
X169485921Y-89099192D01*
X169382911Y-89126793D01*
X169382906Y-89126796D01*
X169292101Y-89179222D01*
X169292096Y-89179226D01*
X169291589Y-89179518D01*
X169171802Y-89299305D01*
X169110479Y-89332789D01*
X169040787Y-89327805D01*
X168984854Y-89285933D01*
X168961647Y-89231019D01*
X168961579Y-89230587D01*
X168960646Y-89224696D01*
X168903050Y-89111658D01*
X168903046Y-89111654D01*
X168903045Y-89111652D01*
X168813347Y-89021954D01*
X168813344Y-89021952D01*
X168813342Y-89021950D01*
X168736517Y-88982805D01*
X168700301Y-88964352D01*
X168606524Y-88949500D01*
X168606519Y-88949500D01*
X167596544Y-88949500D01*
X167529505Y-88929815D01*
X167508863Y-88913181D01*
X166711818Y-88116136D01*
X166678333Y-88054813D01*
X166675499Y-88028455D01*
X166675499Y-87704518D01*
X166675498Y-87704509D01*
X166669412Y-87647885D01*
X166640821Y-87571233D01*
X166621628Y-87519774D01*
X166539687Y-87410313D01*
X166524260Y-87398765D01*
X166482392Y-87342834D01*
X166477407Y-87273143D01*
X166510891Y-87211819D01*
X166572214Y-87178334D01*
X166598573Y-87175500D01*
X169588513Y-87175500D01*
X169655552Y-87195185D01*
G37*
%TD.AperFunction*%
%TA.AperFunction,Conductor*%
G36*
X140243420Y-75105971D02*
G01*
X140289175Y-75158775D01*
X140299250Y-75219234D01*
X140299500Y-75219234D01*
X140299500Y-75220731D01*
X140299784Y-75222436D01*
X140299500Y-75225320D01*
X140299500Y-75225500D01*
X140299473Y-75225590D01*
X140298903Y-75231384D01*
X140297804Y-75231275D01*
X140279815Y-75292539D01*
X140227011Y-75338294D01*
X140175500Y-75349500D01*
X138553856Y-75349500D01*
X138464712Y-75373386D01*
X138464709Y-75373387D01*
X138384791Y-75419527D01*
X138384786Y-75419531D01*
X135019531Y-78784786D01*
X135019525Y-78784794D01*
X134984911Y-78844749D01*
X134984911Y-78844750D01*
X134973387Y-78864709D01*
X134973386Y-78864712D01*
X134949500Y-78953856D01*
X134949500Y-79642209D01*
X134929815Y-79709248D01*
X134877011Y-79755003D01*
X134868833Y-79758391D01*
X134807671Y-79781202D01*
X134807664Y-79781206D01*
X134692455Y-79867452D01*
X134692452Y-79867455D01*
X134606206Y-79982664D01*
X134606202Y-79982671D01*
X134555908Y-80117517D01*
X134549501Y-80177116D01*
X134549501Y-80177123D01*
X134549500Y-80177135D01*
X134549500Y-81222870D01*
X134549501Y-81222876D01*
X134555908Y-81282483D01*
X134606202Y-81417328D01*
X134606206Y-81417335D01*
X134692452Y-81532544D01*
X134692455Y-81532547D01*
X134807664Y-81618793D01*
X134807669Y-81618796D01*
X134868833Y-81641608D01*
X134924766Y-81683478D01*
X134949184Y-81748942D01*
X134949500Y-81757790D01*
X134949500Y-82146144D01*
X134969725Y-82221626D01*
X134969727Y-82221630D01*
X134973386Y-82235289D01*
X134987592Y-82259895D01*
X135004063Y-82327795D01*
X134981210Y-82393822D01*
X134926288Y-82437011D01*
X134856735Y-82443652D01*
X134841886Y-82439824D01*
X134666240Y-82382753D01*
X134504957Y-82357208D01*
X134456287Y-82349500D01*
X132943713Y-82349500D01*
X132895042Y-82357208D01*
X132733760Y-82382753D01*
X132531585Y-82448444D01*
X132342179Y-82544951D01*
X132170213Y-82669890D01*
X132170209Y-82669894D01*
X132126395Y-82713709D01*
X132065072Y-82747194D01*
X131995380Y-82742210D01*
X131939447Y-82700338D01*
X131915030Y-82634874D01*
X131914714Y-82626028D01*
X131914714Y-78424656D01*
X131934399Y-78357617D01*
X131987203Y-78311862D01*
X132056361Y-78301918D01*
X132116967Y-78328468D01*
X132142820Y-78349500D01*
X132156952Y-78360998D01*
X132408318Y-78513857D01*
X132408323Y-78513859D01*
X132678153Y-78631062D01*
X132678158Y-78631064D01*
X132961444Y-78710437D01*
X133217680Y-78745656D01*
X133252900Y-78750497D01*
X133252901Y-78750497D01*
X133547098Y-78750497D01*
X133578519Y-78746177D01*
X133838554Y-78710437D01*
X134121840Y-78631064D01*
X134391681Y-78513856D01*
X134643048Y-78360996D01*
X134871259Y-78175332D01*
X135072064Y-77960323D01*
X135241721Y-77719973D01*
X135377071Y-77458761D01*
X135475591Y-77181551D01*
X135475591Y-77181546D01*
X135475594Y-77181540D01*
X135530039Y-76919531D01*
X135535447Y-76893508D01*
X135555524Y-76599997D01*
X135535447Y-76306486D01*
X135507990Y-76174354D01*
X135475594Y-76018453D01*
X135475589Y-76018437D01*
X135437803Y-75912117D01*
X135377071Y-75741233D01*
X135241721Y-75480021D01*
X135149590Y-75349500D01*
X135101798Y-75281794D01*
X135079220Y-75215673D01*
X135095974Y-75147842D01*
X135146740Y-75099836D01*
X135203103Y-75086286D01*
X140176381Y-75086286D01*
X140243420Y-75105971D01*
G37*
%TD.AperFunction*%
%TD*%
M02*
