%TF.GenerationSoftware,KiCad,Pcbnew,8.0.9-8.0.9-0~ubuntu22.04.1*%
%TF.CreationDate,2025-07-15T10:59:46-04:00*%
%TF.ProjectId,schematics,73636865-6d61-4746-9963-732e6b696361,rev?*%
%TF.SameCoordinates,Original*%
%TF.FileFunction,Paste,Top*%
%TF.FilePolarity,Positive*%
%FSLAX46Y46*%
G04 Gerber Fmt 4.6, Leading zero omitted, Abs format (unit mm)*
G04 Created by KiCad (PCBNEW 8.0.9-8.0.9-0~ubuntu22.04.1) date 2025-07-15 10:59:46*
%MOMM*%
%LPD*%
G01*
G04 APERTURE LIST*
G04 Aperture macros list*
%AMRoundRect*
0 Rectangle with rounded corners*
0 $1 Rounding radius*
0 $2 $3 $4 $5 $6 $7 $8 $9 X,Y pos of 4 corners*
0 Add a 4 corners polygon primitive as box body*
4,1,4,$2,$3,$4,$5,$6,$7,$8,$9,$2,$3,0*
0 Add four circle primitives for the rounded corners*
1,1,$1+$1,$2,$3*
1,1,$1+$1,$4,$5*
1,1,$1+$1,$6,$7*
1,1,$1+$1,$8,$9*
0 Add four rect primitives between the rounded corners*
20,1,$1+$1,$2,$3,$4,$5,0*
20,1,$1+$1,$4,$5,$6,$7,0*
20,1,$1+$1,$6,$7,$8,$9,0*
20,1,$1+$1,$8,$9,$2,$3,0*%
G04 Aperture macros list end*
%ADD10RoundRect,0.225000X-0.225000X-0.250000X0.225000X-0.250000X0.225000X0.250000X-0.225000X0.250000X0*%
%ADD11RoundRect,0.200000X0.275000X-0.200000X0.275000X0.200000X-0.275000X0.200000X-0.275000X-0.200000X0*%
%ADD12RoundRect,0.225000X0.225000X0.250000X-0.225000X0.250000X-0.225000X-0.250000X0.225000X-0.250000X0*%
%ADD13RoundRect,0.250000X-0.250000X-0.475000X0.250000X-0.475000X0.250000X0.475000X-0.250000X0.475000X0*%
%ADD14RoundRect,0.200000X-0.200000X-0.275000X0.200000X-0.275000X0.200000X0.275000X-0.200000X0.275000X0*%
%ADD15R,0.900000X1.000000*%
%ADD16RoundRect,0.225000X-0.250000X0.225000X-0.250000X-0.225000X0.250000X-0.225000X0.250000X0.225000X0*%
%ADD17RoundRect,0.225000X0.250000X-0.225000X0.250000X0.225000X-0.250000X0.225000X-0.250000X-0.225000X0*%
%ADD18RoundRect,0.150000X0.425000X-0.150000X0.425000X0.150000X-0.425000X0.150000X-0.425000X-0.150000X0*%
%ADD19RoundRect,0.075000X0.500000X-0.075000X0.500000X0.075000X-0.500000X0.075000X-0.500000X-0.075000X0*%
%ADD20RoundRect,0.250000X0.750000X-0.840000X0.750000X0.840000X-0.750000X0.840000X-0.750000X-0.840000X0*%
%ADD21RoundRect,0.160000X0.160000X-0.245000X0.160000X0.245000X-0.160000X0.245000X-0.160000X-0.245000X0*%
%ADD22RoundRect,0.093750X0.106250X-0.093750X0.106250X0.093750X-0.106250X0.093750X-0.106250X-0.093750X0*%
%ADD23RoundRect,0.200000X-0.275000X0.200000X-0.275000X-0.200000X0.275000X-0.200000X0.275000X0.200000X0*%
%ADD24RoundRect,0.150000X0.150000X-0.512500X0.150000X0.512500X-0.150000X0.512500X-0.150000X-0.512500X0*%
%ADD25RoundRect,0.150000X0.512500X0.150000X-0.512500X0.150000X-0.512500X-0.150000X0.512500X-0.150000X0*%
%ADD26RoundRect,0.250000X0.250000X0.475000X-0.250000X0.475000X-0.250000X-0.475000X0.250000X-0.475000X0*%
%ADD27R,0.675000X0.250000*%
%ADD28R,0.250000X0.675000*%
%ADD29RoundRect,0.200000X0.200000X0.275000X-0.200000X0.275000X-0.200000X-0.275000X0.200000X-0.275000X0*%
%ADD30R,0.700000X0.700000*%
%ADD31R,1.500000X0.900000*%
%ADD32RoundRect,0.150000X-0.512500X-0.150000X0.512500X-0.150000X0.512500X0.150000X-0.512500X0.150000X0*%
G04 APERTURE END LIST*
D10*
%TO.C,C3*%
X166400000Y-85500000D03*
X167950000Y-85500000D03*
%TD*%
D11*
%TO.C,R1*%
X145300000Y-93625000D03*
X145300000Y-91975000D03*
%TD*%
%TO.C,R13*%
X159400000Y-91525000D03*
X159400000Y-89875000D03*
%TD*%
D12*
%TO.C,C11*%
X165975000Y-88000000D03*
X164425000Y-88000000D03*
%TD*%
D11*
%TO.C,R12*%
X152600000Y-91550000D03*
X152600000Y-89900000D03*
%TD*%
D13*
%TO.C,C10*%
X173275000Y-97500000D03*
X175175000Y-97500000D03*
%TD*%
D14*
%TO.C,R10*%
X165175000Y-79900000D03*
X166825000Y-79900000D03*
%TD*%
D15*
%TO.C,SW5*%
X146900000Y-96600000D03*
X151000000Y-96600000D03*
X146900000Y-98200000D03*
X151000000Y-98200000D03*
%TD*%
D16*
%TO.C,C4*%
X166000000Y-89925000D03*
X166000000Y-91475000D03*
%TD*%
D17*
%TO.C,C12*%
X139200000Y-81575000D03*
X139200000Y-80025000D03*
%TD*%
D14*
%TO.C,R8*%
X171350000Y-80000000D03*
X173000000Y-80000000D03*
%TD*%
D18*
%TO.C,J1*%
X175120000Y-90300000D03*
X175120000Y-89500000D03*
D19*
X175120000Y-88350000D03*
X175120000Y-87350000D03*
X175120000Y-86850000D03*
X175120000Y-85850000D03*
D18*
X175120000Y-84700000D03*
X175120000Y-83900000D03*
X175120000Y-83900000D03*
X175120000Y-84700000D03*
D19*
X175120000Y-85350000D03*
X175120000Y-86350000D03*
X175120000Y-87850000D03*
X175120000Y-88850000D03*
D18*
X175120000Y-89500000D03*
X175120000Y-90300000D03*
D20*
X175695000Y-92210000D03*
X179625000Y-92210000D03*
X175695000Y-81990000D03*
X179625000Y-81990000D03*
%TD*%
D11*
%TO.C,R6*%
X154300000Y-91550000D03*
X154300000Y-89900000D03*
%TD*%
D21*
%TO.C,U5*%
X172200000Y-90412500D03*
X173000000Y-90412500D03*
D22*
X171950000Y-91300000D03*
X172600000Y-91300000D03*
X173250000Y-91300000D03*
X173250000Y-89525000D03*
X172600000Y-89525000D03*
X171950000Y-89525000D03*
%TD*%
D23*
%TO.C,R11*%
X163100000Y-79775000D03*
X163100000Y-81425000D03*
%TD*%
D24*
%TO.C,U3*%
X137450000Y-86137500D03*
X138400000Y-86137500D03*
X139350000Y-86137500D03*
X139350000Y-83862500D03*
X137450000Y-83862500D03*
%TD*%
D12*
%TO.C,C13*%
X170300000Y-87900000D03*
X168750000Y-87900000D03*
%TD*%
D25*
%TO.C,U2*%
X170337500Y-91400000D03*
X170337500Y-90450000D03*
X170337500Y-89500000D03*
X168062500Y-89500000D03*
X168062500Y-91400000D03*
%TD*%
D26*
%TO.C,C9*%
X135300000Y-80700000D03*
X133400000Y-80700000D03*
%TD*%
D10*
%TO.C,C5*%
X143725000Y-90500000D03*
X145275000Y-90500000D03*
%TD*%
D23*
%TO.C,R4*%
X145300000Y-96550000D03*
X145300000Y-98200000D03*
%TD*%
D16*
%TO.C,C8*%
X161100000Y-89925000D03*
X161100000Y-91475000D03*
%TD*%
D15*
%TO.C,SW4*%
X146900000Y-92600000D03*
X151000000Y-92600000D03*
X146900000Y-94200000D03*
X151000000Y-94200000D03*
%TD*%
D23*
%TO.C,R_PROG1*%
X141500000Y-90525000D03*
X141500000Y-92175000D03*
%TD*%
D11*
%TO.C,R7*%
X162800000Y-91550000D03*
X162800000Y-89900000D03*
%TD*%
D23*
%TO.C,R2*%
X143750000Y-91975000D03*
X143750000Y-93625000D03*
%TD*%
D17*
%TO.C,C14*%
X137400000Y-81600000D03*
X137400000Y-80050000D03*
%TD*%
%TO.C,C2*%
X172000000Y-83100000D03*
X172000000Y-81550000D03*
%TD*%
D27*
%TO.C,U6*%
X165575000Y-81600000D03*
X165575000Y-82100000D03*
X165575000Y-82600000D03*
X165575000Y-83100000D03*
D28*
X166337500Y-83362500D03*
X166837500Y-83362500D03*
X167337500Y-83362500D03*
D27*
X168100000Y-83100000D03*
X168100000Y-82600000D03*
X168100000Y-82100000D03*
X168100000Y-81600000D03*
D28*
X167337500Y-81337500D03*
X166837500Y-81337500D03*
X166337500Y-81337500D03*
%TD*%
D10*
%TO.C,C6*%
X143725000Y-95075000D03*
X145275000Y-95075000D03*
%TD*%
D23*
%TO.C,R3*%
X143750000Y-96550000D03*
X143750000Y-98200000D03*
%TD*%
D13*
%TO.C,C15*%
X173275000Y-95100000D03*
X175175000Y-95100000D03*
%TD*%
D29*
%TO.C,R9*%
X163025000Y-76400000D03*
X161375000Y-76400000D03*
%TD*%
D16*
%TO.C,C7*%
X156000000Y-89925000D03*
X156000000Y-91475000D03*
%TD*%
D11*
%TO.C,R5*%
X157700000Y-91525000D03*
X157700000Y-89875000D03*
%TD*%
D30*
%TO.C,U1*%
X149910000Y-80800000D03*
X149910000Y-81900000D03*
X149910000Y-83000000D03*
X151010000Y-80800000D03*
X151010000Y-81900000D03*
X151010000Y-83000000D03*
X152110000Y-80800000D03*
X152110000Y-81900000D03*
X152110000Y-83000000D03*
D31*
X141300000Y-75700000D03*
X141300000Y-77200000D03*
X141300000Y-78700000D03*
X141300000Y-80200000D03*
X141300000Y-81700000D03*
X141300000Y-83200000D03*
X141300000Y-84700000D03*
X141300000Y-86200000D03*
X141300000Y-87700000D03*
X158800000Y-87700000D03*
X158800000Y-86200000D03*
X158800000Y-84700000D03*
X158800000Y-83200000D03*
X158800000Y-81700000D03*
X158800000Y-80200000D03*
X158800000Y-78700000D03*
X158800000Y-77200000D03*
X158800000Y-75700000D03*
%TD*%
D32*
%TO.C,U4*%
X137425000Y-90500000D03*
X137425000Y-91450000D03*
X137425000Y-92400000D03*
X139700000Y-92400000D03*
X139700000Y-90500000D03*
%TD*%
D11*
%TO.C,R14*%
X164400000Y-91550000D03*
X164400000Y-89900000D03*
%TD*%
M02*
