M48
; DRILL file {KiCad 8.0.9-8.0.9-0~ubuntu22.04.1} date 2025-07-15T10:59:47-0400
; FORMAT={-:-/ absolute / inch / decimal}
; #@! TF.CreationDate,2025-07-15T10:59:47-04:00
; #@! TF.GenerationSoftware,Kicad,Pcbnew,8.0.9-8.0.9-0~ubuntu22.04.1
; #@! TF.FileFunction,Plated,1,2,PTH
FMAT,2
INCH
; #@! TA.AperFunction,Plated,PTH,ComponentDrill
T1C0.0079
; #@! TA.AperFunction,Plated,PTH,ViaDrill
T2C0.0118
; #@! TA.AperFunction,Plated,PTH,ComponentDrill
T3C0.0295
; #@! TA.AperFunction,Plated,PTH,ComponentDrill
T4C0.0354
; #@! TA.AperFunction,Plated,PTH,ComponentDrill
T5C0.0433
; #@! TA.AperFunction,Plated,PTH,ComponentDrill
T6C0.0591
; #@! TA.AperFunction,Plated,PTH,ComponentDrill
T7C0.0866
%
G90
G05
T1
X5.902Y-3.2028
X5.902Y-3.2461
X5.9236Y-3.1811
X5.9236Y-3.2244
X5.9236Y-3.2677
X5.9453Y-3.2028
X5.9453Y-3.2461
X5.9669Y-3.1811
X5.9669Y-3.2244
X5.9669Y-3.2677
X5.9886Y-3.2028
X5.9886Y-3.2461
T2
X5.374Y-2.9921
X5.4094Y-3.5197
X5.4528Y-3.0748
X5.5512Y-3.6654
X5.7067Y-3.1772
X5.7067Y-3.4606
X5.7489Y-3.7733
X5.7559Y-3.5984
X6.3209Y-3.126
X6.5758Y-3.3415
X6.5945Y-3.4587
X6.6102Y-3.1501
X6.689Y-3.2717
X6.7126Y-3.1575
X6.7441Y-3.4606
T3
X5.4528Y-3.7717
X5.5315Y-3.7717
T4
X5.2638Y-3.378
X5.2638Y-3.4567
X5.2638Y-3.5354
X6.5209Y-3.0644
X6.6209Y-3.0644
X6.7413Y-3.0644
X6.8413Y-3.0644
T5
X6.0756Y-3.7795
X6.1756Y-3.7795
X6.3386Y-3.7795
X6.4386Y-3.7795
X6.6008Y-3.7795
X6.7008Y-3.7795
T6
X5.2638Y-3.2953
X5.2638Y-3.6181
T7
X5.252Y-3.0157
X5.252Y-3.8425
X7.063Y-3.0157
X7.063Y-3.8425
M30
